<?xml version="1.0" standalone="no"?>
<!DOCTYPE svg PUBLIC "-//W3C//DTD SVG 20010904//EN"
 "http://www.w3.org/TR/2001/REC-SVG-20010904/DTD/svg10.dtd">
<svg version="1.0" xmlns="http://www.w3.org/2000/svg"
 width="3431.000000pt" height="3431.000000pt" viewBox="0 0 3431.000000 3431.000000"
 preserveAspectRatio="xMidYMid meet">
<metadata>
Created by potrace 1.14, written by Peter Selinger 2001-2017
</metadata>
<g transform="translate(0.000000,3431.000000) scale(0.100000,-0.100000)"
fill="#000000" stroke="none">
<path d="M24620 25015 c-11 -13 -10 -14 4 -9 9 3 16 10 16 15 0 13 -6 11 -20
-6z"/>
<path d="M24528 24941 l-44 -39 -2460 -3 c-2332 -2 -2462 -3 -2512 -20 -29
-10 -67 -28 -85 -41 -64 -45 -169 -166 -249 -285 -44 -68 -84 -123 -89 -123
-4 0 -22 17 -40 38 -35 41 -30 26 9 -26 21 -28 23 -36 14 -57 -7 -14 -16 -25
-22 -25 -6 0 -34 21 -62 48 -56 51 -55 44 3 -31 l38 -47 -240 -363 c-132 -199
-302 -456 -377 -570 -305 -462 -784 -1185 -820 -1237 -21 -30 -54 -78 -72
-107 l-35 -52 -2600 -3 c-2514 -3 -2602 -4 -2648 -22 -97 -37 -128 -78 -668
-891 -497 -748 -913 -1375 -1087 -1639 l-85 -130 27 -51 28 -51 -26 -39 c-14
-22 -29 -44 -34 -50 -7 -9 -23 -36 -71 -115 -66 -111 129 179 947 1405 517
776 952 1422 968 1437 16 15 43 33 59 40 25 11 749 13 4008 16 l3978 2 -11
-21 c-23 -42 -185 -248 -297 -379 -145 -167 -732 -756 -1026 -1028 l-218 -202
-2092 0 c-1391 0 -2104 -4 -2129 -10 -32 -9 -46 -25 -117 -133 -83 -126 -93
-155 -65 -195 23 -33 38 -39 220 -78 547 -117 1130 -288 1565 -459 378 -149
646 -280 943 -463 l88 -55 -23 -21 c-84 -76 -393 -331 -679 -561 -184 -148
-375 -302 -425 -343 -49 -40 -153 -124 -230 -186 -77 -63 -304 -249 -505 -414
l-364 -301 -22 97 c-75 334 -282 598 -660 845 -658 431 -1914 721 -3559 822
-335 21 -362 23 -380 41 -8 9 -15 27 -15 41 0 25 -62 113 -79 113 -12 0 -60
-114 -67 -158 -5 -32 -1 -42 31 -80 20 -23 46 -47 57 -53 12 -6 87 -15 167
-20 80 -4 192 -11 248 -15 l102 -6 -42 -64 c-40 -62 -43 -64 -77 -59 -180 24
-650 30 -2460 30 l-1915 0 -65 -32 c-112 -56 37 159 -1948 -2811 -263 -392
-506 -757 -542 -811 -36 -54 -223 -334 -416 -622 -1302 -1944 -2754 -4119
-2754 -4126 0 -3 18 -27 41 -54 32 -39 38 -50 26 -55 -9 -3 -13 -12 -11 -19 3
-8 -7 -33 -23 -57 -37 -54 -50 -77 -36 -63 6 6 1270 1904 2808 4220 1539 2316
2812 4225 2829 4243 17 19 49 43 71 55 l40 22 1880 0 c1920 0 2023 -2 2585
-40 1555 -108 2615 -404 3104 -866 121 -114 184 -198 246 -324 136 -275 128
-590 -20 -890 -347 -701 -1537 -1312 -3335 -1714 -1124 -252 -2413 -405 -3670
-437 -288 -7 -320 -12 -383 -61 -23 -17 -292 -413 -789 -1161 l-754 -1134 -21
18 c-36 33 -251 295 -323 394 -183 252 -558 740 -564 734 -7 -6 281 -397 483
-654 145 -185 172 -222 282 -381 57 -84 104 -157 103 -163 0 -6 -192 -299
-427 -651 l-427 -640 -156 -120 c-165 -127 -244 -191 -219 -179 17 8 180 130
278 207 34 27 62 46 62 43 0 -7 -675 -1022 -699 -1051 -15 -18 -15 -19 1 -6
15 11 22 11 45 -4 36 -23 485 -471 507 -507 16 -25 16 -29 1 -60 -29 -57 -3
-20 149 209 l147 221 137 7 c75 5 227 5 337 2 l200 -6 189 284 189 285 149 0
150 0 -16 -22 c-17 -25 -86 -154 -86 -163 0 -3 104 -5 230 -5 l230 0 -78 -117
c-74 -111 -142 -224 -142 -236 0 -14 129 -16 925 -19 781 -2 865 0 916 15 l56
17 113 170 c107 162 115 170 145 170 l33 0 6 -152 c4 -84 9 -170 12 -190 l6
-38 398 0 399 0 3 23 3 23 92 -36 93 -37 -176 -267 c-160 -242 -176 -270 -170
-299 4 -18 11 -39 16 -47 8 -13 361 -15 3065 -18 1680 -1 3055 -5 3055 -8 0
-4 -10 -22 -21 -41 -21 -34 -21 -34 -2 -39 11 -3 27 -19 37 -35 9 -16 20 -29
24 -29 4 0 149 211 322 470 l315 470 612 0 c666 0 705 -3 824 -56 71 -32 139
-103 157 -162 7 -21 12 -77 12 -123 0 -140 -63 -285 -199 -466 -222 -295 -533
-500 -883 -584 -54 -12 -98 -27 -98 -32 0 -10 158 -922 165 -954 5 -20 1 -23
-26 -23 l-32 0 6 -122 c4 -66 7 -145 7 -175 0 -52 1 -53 29 -53 l30 0 3 -159
c2 -88 7 -163 11 -168 5 -4 105 -9 223 -11 171 -3 215 -1 219 10 3 7 -9 87
-25 178 -17 91 -39 221 -50 290 -11 69 -21 132 -24 142 -2 11 10 6 43 -18 88
-66 91 -70 91 -114 0 -47 27 -134 75 -236 64 -139 214 -246 424 -301 90 -24
112 -26 346 -27 240 -1 255 0 375 28 264 59 530 166 773 310 90 53 305 196
358 238 24 18 49 28 71 28 35 0 35 0 56 74 27 90 27 86 1 86 -16 0 56 113 365
575 299 445 386 581 386 605 0 17 -25 285 -55 596 -30 312 -55 579 -55 595 l0
29 408 0 408 0 29 -318 c15 -174 31 -320 34 -323 3 -4 211 139 461 317 l454
324 415 0 c228 0 412 -2 410 -4 -2 -2 -411 -281 -909 -620 l-905 -617 -358
-532 c-394 -586 -383 -569 -364 -562 7 3 31 -10 54 -30 23 -19 43 -31 45 -26
1 5 590 545 1308 1200 l1305 1191 261 0 260 0 66 -200 66 -199 -255 -992
c-139 -545 -252 -996 -251 -1001 2 -5 366 531 808 1191 l805 1200 316 1 c313
0 317 0 331 -22 13 -20 -20 -72 -599 -934 -337 -502 -613 -915 -613 -919 0 -3
118 -5 263 -5 l262 -1 -41 -37 c-23 -20 -152 -137 -287 -259 l-245 -223 -74
-2 c-64 -1 -58 -2 42 -9 63 -4 158 -4 210 -1 l95 7 -124 5 -124 5 214 175
c118 97 260 213 316 258 l103 83 105 -3 105 -3 -144 -212 c-80 -117 -139 -213
-131 -213 10 0 83 -49 154 -104 11 -8 13 -8 8 1 -4 6 -1 29 7 50 8 21 14 45
14 53 -1 8 72 123 161 255 151 224 160 240 137 243 -14 2 -30 10 -36 18 -7 8
-25 14 -41 14 -29 0 -29 1 65 141 85 128 101 146 177 202 177 130 394 269 511
327 68 33 126 66 130 73 4 7 10 69 14 139 l6 128 55 17 c32 10 59 25 66 38 15
29 45 276 217 1810 16 149 35 311 40 360 6 50 37 326 70 615 33 289 91 806
130 1150 39 344 82 724 95 845 14 121 65 578 115 1015 49 437 90 801 90 807 0
7 15 19 33 26 31 14 33 13 67 -27 102 -120 129 -129 33 -12 l-49 60 210 91
c307 133 473 211 826 386 413 204 601 306 1010 547 707 416 1425 938 1951
1417 36 33 85 78 110 99 188 166 544 532 750 771 714 829 1202 1712 1410 2550
46 187 82 390 101 565 16 154 16 507 0 615 l-12 79 57 60 58 59 -55 -46 c-30
-26 -57 -47 -60 -47 -3 0 -14 39 -23 88 -52 254 -181 538 -348 762 -83 112
-288 322 -419 427 -826 666 -2185 1035 -4175 1134 -157 8 -728 11 -1792 10
-1418 -2 -1562 -1 -1557 13 4 9 1 16 -6 16 -9 0 -7 8 4 25 22 34 16 32 -36
-14z m-2848 -55 c0 -2 -8 -10 -17 -17 -16 -13 -17 -12 -4 4 13 16 21 21 21 13z
m30 -6 c1 12 3 11 11 -3 6 -10 8 -23 5 -30 -2 -7 -5 -3 -6 8 l-1 20 -9 -20
c-8 -19 -9 -19 -9 -1 -1 20 -1 20 -16 0 -14 -18 -14 -17 -3 9 8 20 14 24 20
15 6 -10 8 -10 8 2z m46 -2 c-6 10 238 12 1228 12 679 0 1237 -4 1240 -8 2 -4
-28 -7 -67 -7 -60 0 -70 -3 -73 -18 -2 -18 -2 -18 18 0 21 18 21 18 14 -2 -4
-11 -4 -16 0 -12 4 4 13 2 20 -4 8 -7 14 -7 19 1 5 8 11 7 22 -2 9 -7 34 -13
57 -14 94 -4 146 -7 146 -10 0 -2 -21 -23 -47 -46 -81 -74 -149 -141 -128
-127 11 8 31 24 45 37 14 12 28 22 32 22 3 0 13 6 20 13 7 6 39 31 70 55 l57
42 870 0 870 0 20 -44 c10 -25 37 -64 59 -88 52 -56 170 -136 226 -153 26 -8
148 -18 292 -24 2072 -92 3539 -340 4057 -684 105 -70 118 -84 84 -92 -17 -5
-43 4 -88 29 -516 282 -1611 495 -2989 581 -595 37 -767 40 -2150 40 -1429 0
-1670 -3 -1682 -20 -5 -6 -8 -6 -8 2 0 9 -7 10 -22 4 -13 -4 -35 -7 -50 -6
-20 1 -25 -2 -20 -13 3 -9 1 -13 -4 -9 -6 3 -16 1 -24 -4 -11 -7 -7 -8 13 -5
17 3 27 0 27 -7 0 -8 3 -7 9 2 8 12 10 12 14 0 2 -8 2 -3 0 11 l-3 25 14 -25
c18 -31 -20 -29 656 -36 l545 -5 28 -32 c15 -18 72 -90 128 -162 55 -71 121
-156 145 -187 l45 -58 -833 -1 c-458 -1 -867 -3 -908 -4 -41 -2 -153 -4 -248
-6 -96 -2 -176 -7 -178 -11 -3 -4 -11 -5 -18 -2 -7 3 -21 -2 -30 -12 -9 -9
-35 -32 -57 -50 -23 -19 -39 -34 -37 -35 15 -3 722 -7 1489 -8 l926 -1 190
-238 190 -237 -1645 -3 c-905 -1 -1648 0 -1650 3 -5 5 240 246 415 409 35 32
61 61 59 65 -4 5 -121 7 -121 1 0 -1 -16 -3 -35 -4 -25 -1 -67 -24 -150 -81
-63 -44 -220 -150 -349 -237 l-235 -158 -845 0 c-803 -1 -849 -2 -901 -20 -30
-10 -58 -16 -62 -13 -5 2 -7 1 -6 -4 1 -4 -12 -24 -30 -43 l-32 -34 -22 21
c-16 17 -19 25 -10 35 7 9 8 19 2 28 -6 10 -10 11 -10 3 0 -7 -7 -10 -15 -7
-9 4 -15 19 -15 40 0 19 -4 34 -9 34 -18 0 -3 -64 19 -80 13 -10 18 -20 13
-23 -11 -7 -36 18 -46 46 -4 10 -11 16 -16 13 -5 -3 -14 1 -20 8 -8 9 -8 16
-2 20 5 4 8 20 6 36 -2 17 0 28 6 25 5 -4 9 -2 9 4 0 21 -21 21 -30 -1 -9 -20
-10 -20 -9 -3 2 35 -1 38 -18 24 -16 -12 -17 -12 -6 2 7 9 9 20 5 25 -4 4 0 3
10 -4 10 -8 19 -9 22 -3 4 5 -3 13 -15 16 -16 5 -18 9 -9 15 7 4 10 15 7 24
-4 9 -3 16 2 16 4 0 8 7 8 15 0 18 -13 20 -21 3 -3 -7 -3 -2 0 10 5 21 3 23
-18 18 l-23 -7 23 13 c16 10 19 17 11 25 -8 8 -5 13 11 18 17 5 19 9 9 21 -10
12 -10 15 2 12 8 -2 13 3 11 10 -1 6 1 11 5 11 17 -3 24 2 18 11 -4 7 -14 6
-28 -2 -17 -9 -15 -4 8 20 17 18 32 27 34 21 2 -6 8 -1 15 11 6 13 15 22 20
21 5 -2 12 2 15 8 4 6 23 17 42 25 31 13 144 15 760 17 754 2 1290 5 1639 10
163 2 208 6 222 18 9 8 15 18 12 23 -3 4 1 5 9 2 16 -6 34 14 34 38 0 13 -12
17 -54 20 -42 2 -52 0 -48 -11 4 -11 3 -11 -10 -1 -19 16 -297 21 -287 5 3 -5
-2 -4 -11 4 -14 11 -17 11 -17 0 0 -9 -3 -10 -8 -3 -4 6 -19 10 -34 9 -16 -1
-28 3 -28 8 0 6 -7 2 -16 -9 -8 -10 -13 -14 -10 -8 4 8 -10 11 -42 10 -26 -1
-53 2 -59 7 -8 6 -13 5 -13 -1 0 -6 -6 -10 -12 -7 -28 9 -508 15 -1320 16
l-856 1 2 24 c4 36 16 42 17 8 l1 -29 8 30 c7 27 15 18 11 -12 -1 -7 3 -13 9
-13 6 0 8 5 4 12 -5 8 -2 9 12 4 15 -6 14 -2 -6 16 -13 13 -28 22 -32 20 -10
-3 -10 12 -1 21 3 4 16 -1 27 -10 21 -18 21 -18 3 3 -9 11 -14 25 -10 30 5 5
4 6 -1 2 -5 -4 -15 -3 -22 3 -10 8 -11 16 -3 31 6 11 8 22 5 26 -3 3 -6 -1 -7
-9 -1 -8 -5 -3 -9 11 -8 25 -8 25 -9 2 -1 -13 -5 -21 -10 -18 -8 5 -5 46 6 76
8 22 12 94 4 83 -8 -12 -31 -11 -31 2 0 6 4 10 9 10 6 0 16 7 23 15 11 12 11
12 -4 2 -19 -15 -25 -8 -23 28 0 19 5 24 20 23 11 -1 14 0 7 3 -6 3 -10 10 -7
14 3 5 0 12 -6 16 -8 5 -9 3 -4 -6 6 -9 4 -11 -5 -5 -8 5 -11 4 -6 -3 3 -6 2
-13 -4 -17 -5 -3 -10 2 -11 12 0 11 -3 13 -6 5 -3 -7 0 -19 7 -26 7 -10 8 -16
0 -21 -6 -4 -13 6 -16 24 -4 17 -10 28 -15 25 -5 -3 -4 -14 2 -25 7 -15 7 -24
-1 -34 -7 -8 -7 -15 -1 -19 6 -4 3 -18 -7 -36 -18 -31 -12 -46 14 -36 14 5 14
9 3 23 -10 12 -10 14 -1 9 7 -4 12 -2 12 4 0 6 5 8 12 4 8 -5 9 -9 1 -11 -6
-2 -9 -12 -6 -21 3 -13 -2 -18 -18 -19 -31 -3 -53 16 -39 32 8 9 8 15 1 20 -7
4 -6 14 4 29 14 21 14 24 0 30 -9 3 -13 11 -9 18 5 7 2 9 -8 6 -8 -4 -15 0
-15 7 0 10 5 11 19 4 17 -9 23 -3 20 22 -1 4 12 5 29 4 16 -1 31 1 34 5 3 4
19 5 36 1 18 -4 60 -4 93 0 34 3 297 7 586 9 460 2 709 5 870 11 25 1 48 7 52
13 6 8 8 8 8 -1 0 -13 41 -5 52 11 5 8 8 7 8 -1 0 -7 7 -10 17 -6 12 5 14 3 8
-8 -7 -11 -6 -12 6 -3 8 6 25 10 40 9 19 -1 25 3 25 20 0 29 -36 31 -37 2 -2
-22 -2 -22 -6 1 -2 12 -10 22 -16 22 -59 3 -279 11 -392 15 -77 2 -424 5 -772
5 -347 1 -634 4 -636 7 -3 3 -3 11 0 19 4 12 8 11 20 -3 12 -16 12 -14 0 12
-7 17 -12 39 -10 50 8 56 7 70 -4 70 -18 0 -42 37 -36 55 4 13 4 13 -6 0 -6
-8 -11 -13 -12 -10 -5 27 -4 52 3 62 5 9 8 5 9 -12 l1 -25 7 25 c4 14 14 24
21 22 10 -2 11 0 2 11 -7 8 -10 17 -7 20 3 4 2 4 -2 1 -5 -3 -8 -11 -8 -17 0
-7 -6 -12 -13 -12 -16 0 -32 -24 -25 -41 3 -8 -2 -11 -13 -10 -10 2 -20 8 -22
15 -3 8 -9 6 -18 -6 -12 -14 -12 -11 1 14 8 18 15 39 15 48 0 9 5 13 10 10 6
-4 7 -13 1 -23 -5 -9 -5 -26 -1 -36 6 -17 7 -18 13 -3 3 9 3 24 0 34 -4 10 -2
14 4 10 12 -8 36 17 39 40 2 8 -1 12 -4 8 -4 -4 -7 -12 -7 -18 0 -7 -8 -12
-19 -12 -13 0 -20 8 -22 29 -2 16 -7 33 -13 39 -7 7 -8 2 -4 -13 4 -16 3 -21
-6 -16 -6 4 -9 12 -6 17 7 10 -8 13 -18 3 -12 -12 5 -32 24 -29 20 4 26 -9 9
-20 -5 -3 -10 -1 -10 5 0 6 -5 8 -11 4 -6 -3 -7 -9 -2 -13 5 -3 8 -12 7 -18
-1 -7 -2 -18 -3 -24 -1 -8 -5 -9 -14 0 -8 6 -18 7 -22 3 -5 -4 -5 -2 -1 5 4 7
13 10 21 6 11 -3 13 -1 9 10 -6 16 -20 17 -44 2 -13 -8 -13 -7 -1 8 7 9 17 15
21 12 5 -3 11 -1 15 5 3 5 2 10 -4 10 -5 0 -8 9 -6 20 2 11 0 20 -5 20 -12 0
-20 29 -9 35 5 4 8 3 7 -2 -2 -4 2 -8 7 -8 6 0 9 4 7 8 -1 5 2 6 8 2 6 -3 8
-11 5 -16 -4 -5 -1 -9 4 -9 10 0 14 12 13 30 0 3 18 6 41 7 126 5 697 14 1069
17 300 2 432 7 441 14 8 7 17 9 21 5 11 -12 36 -12 43 -1 4 7 1 8 -7 3 -9 -5
-11 -4 -6 4 5 7 13 8 19 4 7 -5 26 -8 42 -8 27 0 30 3 28 28 -2 25 0 27 14 15
12 -9 15 -10 9 0z m2721 -22 c-21 -19 -49 -36 -62 -39 -14 -2 -25 -3 -25 -2 0
1 21 19 47 39 60 46 93 48 40 2z m-325 5 c8 11 9 11 6 1 -4 -16 -22 -18 -24
-2 -2 7 -1 6 3 -1 4 -8 8 -7 15 2z m52 -4 c4 4 4 -1 0 -10 -3 -10 -7 -17 -8
-15 -1 2 -8 12 -16 23 -14 18 -13 19 1 8 9 -7 19 -10 23 -6z m-4220 -125 c3
-5 -1 -9 -9 -9 -8 0 -12 4 -9 9 3 4 7 8 9 8 2 0 6 -4 9 -8z m30 -100 c3 -5 -1
-9 -9 -9 -8 0 -12 4 -9 9 3 4 7 8 9 8 2 0 6 -4 9 -8z m97 -72 c26 -30 31 -58
8 -44 -5 3 -7 10 -4 15 4 5 1 9 -5 9 -7 0 -10 -6 -7 -12 2 -7 -3 -19 -12 -26
-14 -10 -12 -11 12 -8 26 5 37 -7 17 -19 -5 -3 -10 0 -10 7 0 11 -2 11 -9 0
-10 -16 -33 9 -38 41 -2 12 -9 25 -16 29 -9 6 -9 8 1 8 9 0 10 5 3 18 -18 33
30 19 60 -18z m-87 -6 c3 -8 2 -12 -4 -9 -6 3 -10 10 -10 16 0 14 7 11 14 -7z
m130 -46 c-3 -13 -6 -41 -8 -62 -1 -22 -8 -42 -14 -44 -7 -2 -10 -7 -7 -12 7
-11 -22 -7 -32 5 -4 4 -2 5 6 0 9 -5 12 -3 9 6 -3 8 -11 13 -17 12 -6 -2 -10
2 -8 8 1 6 -6 13 -16 14 -11 2 -22 7 -25 10 -4 4 0 5 8 3 9 -1 15 2 15 7 0 6
-3 9 -6 8 -3 -1 -6 5 -6 13 0 10 7 9 24 -8 13 -12 23 -16 23 -9 0 7 4 10 9 7
11 -7 36 22 28 31 -4 3 -2 12 4 20 16 18 19 16 13 -9z m-1034 -132 c12 -23 4
-45 -37 -96 -3 -3 -13 6 -23 19 -17 24 -17 25 7 63 14 21 29 38 33 38 3 0 12
-11 20 -24z m2830 -45 c0 -14 -2 -14 -10 -1 -5 8 -10 11 -10 7 0 -5 -5 -5 -10
-2 -15 9 -2 25 15 18 8 -3 15 -13 15 -22z m45 10 c3 -5 1 -12 -5 -16 -5 -3
-10 1 -10 9 0 18 6 21 15 7z m1980 1 c-3 -3 0 -10 5 -17 7 -8 5 -12 -5 -12 -8
0 -13 3 -10 5 3 3 0 10 -5 17 -7 8 -5 12 5 12 8 0 13 -3 10 -5z m2580 -75 c73
-33 113 -68 194 -172 106 -135 123 -143 344 -156 720 -43 1453 -141 2007 -269
380 -88 646 -177 895 -300 135 -67 322 -186 310 -198 -2 -2 -83 36 -182 83
-216 105 -320 147 -523 213 -531 171 -1243 292 -2050 346 -414 29 -691 36
-1355 36 l-660 1 -130 156 c-71 85 -154 184 -184 220 l-53 64 673 -3 c623 -3
677 -4 714 -21z m-6359 -74 c-4 -26 -22 -33 -24 -9 -1 13 4 23 12 23 8 0 13
-6 12 -14z m30 -75 c-1 -13 -4 -27 -8 -33 -10 -16 -13 -69 -4 -83 4 -7 12 -9
18 -6 7 5 9 1 5 -9 -3 -8 1 -21 8 -27 13 -11 12 -16 -5 -37 -10 -13 -16 -31
-13 -40 4 -10 2 -14 -7 -11 -7 2 -15 16 -17 31 -3 22 0 26 14 21 16 -5 16 -4
-1 10 -15 12 -22 13 -27 4 -4 -7 -5 -16 -3 -20 3 -4 -2 -5 -10 -2 -13 5 -12 8
2 24 8 11 20 16 25 13 6 -4 8 1 4 11 -4 10 -3 15 3 11 6 -3 10 -1 10 4 0 19
-20 12 -47 -16 -14 -16 -20 -21 -14 -12 6 9 7 20 3 24 -4 5 -2 6 3 2 6 -3 16
3 23 14 7 10 8 19 3 19 -6 0 -13 -4 -16 -10 -3 -5 -12 -10 -18 -9 -8 0 -8 2 1
6 9 3 10 9 3 17 -6 7 -6 17 -1 26 7 11 10 12 10 2 0 -7 5 -10 10 -7 8 5 7 11
-1 21 -6 7 -15 12 -18 9 -4 -2 -8 2 -8 9 0 7 6 13 14 13 7 0 13 -6 13 -13 0
-26 17 -22 18 4 1 23 3 37 11 70 1 2 5 1 9 -2 5 -3 8 -16 8 -28z m-92 -84 c3
-8 2 -12 -4 -9 -6 3 -10 10 -10 16 0 14 7 11 14 -7z m-633 -61 c76 -82 74 -70
19 -153 -28 -41 -53 -74 -56 -73 -8 2 -94 121 -94 130 0 11 82 133 89 133 4 0
23 -17 42 -37z m644 -1 c-3 -3 -11 0 -18 7 -9 10 -8 11 6 5 10 -3 15 -9 12
-12z m0 -42 c3 -6 -1 -7 -9 -4 -18 7 -21 14 -7 14 6 0 13 -4 16 -10z m40 -39
c-3 -5 -1 -12 5 -16 6 -4 8 -11 4 -16 -9 -14 -23 -1 -19 19 5 23 4 22 11 22 3
0 3 -4 -1 -9z m-21 -36 c3 -8 1 -15 -4 -15 -6 0 -10 7 -10 15 0 8 2 15 4 15 2
0 6 -7 10 -15z m2692 -51 c1 -9 0 -13 -4 -10 -3 4 -7 14 -8 22 -1 9 0 13 4 10
3 -4 7 -14 8 -22z m29 17 c3 -5 2 -12 -3 -15 -5 -3 -9 1 -9 9 0 17 3 19 12 6z
m2690 -28 c54 -67 58 -73 43 -73 -7 0 -33 25 -56 55 -48 61 -35 77 13 18z
m-2634 10 c13 -16 12 -17 -3 -4 -17 13 -22 21 -14 21 2 0 10 -8 17 -17z m99
11 c0 -8 -19 -13 -24 -6 -3 5 1 9 9 9 8 0 15 -2 15 -3z m3912 -132 c58 -28 76
-45 154 -141 52 -65 103 -118 127 -131 33 -19 73 -25 265 -41 501 -42 935
-117 1309 -225 340 -98 612 -224 811 -376 89 -69 62 -80 -47 -18 -592 336
-1715 516 -3102 497 l-427 -6 -33 42 c-31 40 -315 382 -347 420 -15 17 11 17
604 15 l619 -3 67 -33z m-6919 -246 l48 -44 -93 -141 c-51 -77 -95 -140 -98
-140 -3 0 -38 52 -79 115 l-74 115 78 116 77 116 46 -46 c26 -26 69 -66 95
-91z m207 -166 c0 -5 -2 -10 -4 -10 -3 0 -8 5 -11 10 -3 6 -1 10 4 10 6 0 11
-4 11 -10z m2384 -49 c5 -1 -33 -44 -85 -96 l-94 -95 -244 0 c-140 1 -240 5
-235 10 5 5 73 49 150 97 l142 88 178 -2 c99 -1 183 -2 188 -2z m3496 -83 c94
-114 96 -118 72 -118 -12 0 -51 38 -106 105 -74 89 -83 105 -64 104 16 0 45
-27 98 -91z m-5453 -244 c24 -16 43 -31 43 -34 0 -3 -85 -132 -189 -288 l-188
-283 -18 48 c-10 26 -55 122 -101 212 l-82 163 131 198 131 197 116 -92 c63
-50 134 -104 157 -121z m1148 75 c-162 -92 -381 -195 -497 -234 -133 -45 -220
-51 -308 -21 -58 19 -218 103 -260 137 l-25 19 62 59 c97 93 74 89 633 90
l485 1 -90 -51z m4362 27 c20 -27 224 -268 233 -276 3 -3 30 -34 60 -70 30
-36 70 -82 89 -102 72 -80 74 -76 -36 -82 -54 -4 -1108 -9 -2342 -12 l-2244
-5 44 53 c42 51 199 231 274 313 20 22 72 77 117 122 l80 83 1853 0 1853 0 19
-24z m1187 9 c87 -23 139 -66 211 -175 34 -52 75 -119 90 -148 29 -53 72 -94
120 -112 15 -6 75 -17 134 -25 345 -48 728 -176 986 -330 88 -53 246 -165 283
-202 9 -8 10 -18 4 -29 -8 -14 -12 -13 -38 9 -269 225 -828 379 -1605 442
-187 15 -632 34 -791 35 l-77 0 -89 108 c-49 59 -153 182 -231 275 l-141 167
543 0 c453 0 552 -3 601 -15z m-563 -697 c217 -268 300 -373 267 -337 -64 69
-403 461 -406 470 -2 5 3 9 10 9 8 0 66 -64 129 -142z m6069 117 c0 -28 -158
-167 -745 -655 -450 -374 -485 -402 -485 -397 0 12 1212 1077 1225 1077 3 0 5
-11 5 -25z m-11011 -67 c-112 -151 -182 -289 -194 -384 -30 -227 269 -810 831
-1621 l154 -223 -51 -78 -52 -77 -151 160 c-82 88 -292 302 -465 475 -542 542
-846 780 -995 780 -28 0 -67 -4 -85 -10 -19 -5 -36 -8 -37 -7 -2 2 55 91 127
197 151 226 172 264 164 291 -16 50 -9 49 -425 49 l-388 0 21 40 22 40 265 0
265 0 129 195 c129 195 156 225 224 245 15 5 179 9 364 9 l337 0 -60 -81z
m-1510 -159 c15 -69 14 -112 -5 -159 l-16 -40 -84 0 c-47 0 -84 4 -84 10 0 5
12 8 27 7 16 -1 28 4 30 13 4 13 3 13 -6 0 -10 -13 -11 -13 -11 0 0 13 -2 13
-11 0 -9 -12 -10 -11 -4 5 10 31 139 224 147 219 3 -2 11 -27 17 -55z m6971
-514 c13 -14 21 -25 18 -25 -2 0 -15 11 -28 25 -13 14 -21 25 -18 25 2 0 15
-11 28 -25z m242 -268 c902 -978 1528 -1523 1784 -1553 224 -26 860 367 1847
1144 119 94 217 170 217 168 0 -1 -89 -86 -197 -187 -272 -253 -717 -693 -883
-874 -257 -279 -405 -467 -488 -622 -45 -84 -47 -92 -47 -168 0 -96 16 -145
95 -310 114 -236 321 -556 634 -979 l110 -149 -44 -37 -44 -38 -271 272 c-564
567 -882 826 -1013 826 -40 0 -163 -40 -234 -76 l-52 -26 43 50 c119 143 309
471 391 677 81 202 85 246 8 87 -105 -219 -348 -536 -687 -899 l-152 -163
-200 0 -200 0 142 153 c356 384 509 600 509 720 0 157 -215 529 -655 1132
-212 291 -431 576 -782 1018 -30 37 -52 67 -50 67 3 0 101 -105 219 -233z
m-7101 -549 c-181 -271 -344 -507 -362 -525 -68 -65 -61 -64 -586 -63 -262 0
-478 1 -479 3 -5 5 401 289 661 462 440 293 763 481 983 571 59 24 108 44 110
44 1 0 -146 -222 -327 -492z m3184 -453 c790 -11 1050 -28 1297 -86 534 -124
749 -436 563 -814 -103 -211 -307 -468 -545 -689 -47 -43 -64 -63 -39 -43 25
20 49 35 52 32 4 -3 5 -2 2 2 -6 8 14 33 27 33 5 0 7 -4 4 -9 -3 -5 1 -14 9
-21 8 -7 12 -16 9 -21 -9 -16 3 -10 17 8 8 9 9 14 3 10 -13 -7 -31 11 -30 31
1 6 5 11 11 10 5 -2 8 -10 7 -18 -2 -8 4 -5 13 8 16 21 35 22 35 1 0 -6 -4 -8
-9 -4 -5 3 -12 1 -15 -4 -12 -20 13 -21 27 -1 7 11 16 17 19 14 3 -3 20 12 38
33 18 21 29 31 25 23 -4 -8 20 13 53 47 l59 62 67 -6 c94 -8 127 9 218 116
118 138 194 247 267 381 48 89 51 86 12 -13 -54 -135 -152 -297 -248 -408
-147 -170 -317 -354 -326 -351 -6 2 -4 -5 4 -14 8 -10 9 -15 3 -11 -17 10 -48
-29 -39 -50 6 -16 9 -16 29 8 12 14 27 24 34 21 7 -2 12 1 12 6 0 6 8 13 18
16 19 6 172 154 172 166 0 4 13 13 30 20 26 11 38 9 93 -13 93 -37 127 -41
192 -22 47 13 70 29 142 98 148 142 257 289 334 450 48 101 50 94 5 -21 -61
-158 -165 -338 -273 -471 -97 -121 -283 -298 -533 -510 -41 -35 -94 -79 -117
-99 -23 -20 -39 -40 -36 -45 3 -6 1 -7 -5 -3 -6 3 -26 -9 -46 -27 -20 -19 -37
-32 -39 -30 -11 10 -23 -25 -16 -47 5 -18 7 -20 8 -7 1 21 41 76 41 57 0 -10
4 -9 17 1 15 12 16 12 8 -1 -5 -8 -10 -24 -12 -35 -1 -11 -4 -29 -6 -40 -2
-11 1 -27 7 -35 9 -13 9 -13 -6 -2 -10 8 -15 22 -12 38 3 18 1 23 -7 18 -7 -4
-9 -3 -5 4 3 6 1 14 -5 18 -9 5 -10 -2 -6 -26 4 -19 3 -38 -3 -46 -8 -8 -8
-14 0 -19 5 -3 10 -1 10 6 0 7 3 9 6 6 4 -4 2 -13 -5 -20 -9 -11 -8 -17 4 -27
13 -11 14 -10 10 3 -4 8 -1 18 6 23 8 5 10 3 4 -7 -7 -11 -6 -12 7 -2 8 7 19
9 23 5 5 -4 5 -1 1 6 -4 7 -1 12 8 12 9 0 16 5 16 12 0 6 3 9 6 5 5 -5 102 48
114 63 3 4 12 11 21 16 21 12 71 51 183 145 109 91 276 264 348 360 72 97 82
101 231 93 221 -12 288 18 398 179 74 107 146 241 184 339 33 87 33 38 0 -78
-30 -104 -103 -258 -172 -364 -94 -144 -298 -386 -468 -555 -335 -335 -683
-588 -1085 -789 -80 -40 -176 -85 -214 -100 l-68 -27 -33 38 c-221 260 -243
288 -237 302 3 9 38 70 77 136 182 306 189 340 15 66 -63 -99 -118 -181 -121
-181 -8 0 -334 379 -409 475 -30 39 -57 72 -60 75 -9 7 -380 481 -541 690
-316 410 -839 1118 -839 1136 0 4 44 75 98 157 l97 149 180 -6 c99 -3 369 -8
600 -11z m-4665 -158 c-8 -8 -100 -76 -205 -152 -104 -77 -344 -255 -533 -397
-331 -249 -345 -258 -389 -258 l-45 0 39 33 c63 52 339 298 618 551 l260 236
135 0 c113 0 132 -2 120 -13z m3717 -459 c394 -431 830 -922 1320 -1490 13
-15 10 -18 -41 -34 -31 -10 -54 -19 -52 -22 3 -2 28 4 57 13 l53 18 51 -55
c45 -49 393 -478 408 -504 7 -13 -295 -514 -321 -531 -39 -26 -528 -119 -783
-148 -188 -22 -537 -30 -683 -16 -126 12 -146 8 -146 -31 0 -10 6 -31 14 -46
14 -27 12 -32 -147 -260 -89 -127 -165 -232 -168 -232 -3 0 -38 21 -78 46 -49
31 -70 51 -67 61 3 8 83 125 177 260 94 135 178 261 185 279 20 48 17 84 -11
129 -45 73 -29 111 56 136 19 5 151 12 294 14 399 7 629 28 950 86 94 17 187
39 208 49 25 12 37 14 38 7 0 -8 2 -8 6 1 2 6 9 10 14 6 5 -3 9 0 9 6 0 6 5 8
10 5 6 -3 10 -2 10 3 0 5 12 9 28 8 24 -1 28 3 33 39 l6 40 3 -35 3 -35 5 35
5 35 8 -35 7 -35 0 35 c0 19 0 38 1 43 2 14 1 17 -6 17 -5 0 -9 -4 -9 -10 -3
-23 -5 -24 -14 -10 -6 9 -5 20 3 29 10 12 9 13 -3 6 -8 -6 -18 -10 -23 -10
-13 0 -46 -58 -40 -69 4 -6 -1 -5 -10 3 -9 7 -16 21 -16 30 1 13 2 12 6 -2 5
-18 5 -18 19 0 16 22 18 33 3 33 -5 0 -7 -4 -4 -10 3 -5 1 -10 -4 -10 -6 0
-11 6 -12 13 0 9 -2 9 -6 -1 -2 -6 -10 -9 -16 -5 -6 4 -8 0 -5 -9 4 -8 1 -15
-7 -15 -7 0 -11 6 -8 13 3 8 -2 11 -14 9 -10 -2 -22 -4 -26 -4 -5 -1 -5 -7 -1
-13 6 -10 5 -10 -8 -1 -8 7 -17 11 -19 8 -3 -2 -31 -7 -62 -9 -31 -3 -74 -10
-95 -15 -54 -15 -364 -59 -533 -76 -141 -14 -597 -35 -730 -32 -92 1 -140 -28
-211 -130 -132 -188 -229 -329 -374 -541 -45 -65 -83 -111 -90 -108 -30 11
-94 57 -94 67 0 6 102 160 227 342 124 183 250 367 280 410 62 92 66 120 23
162 -42 40 -38 74 13 98 34 17 64 19 315 18 384 -2 670 20 902 70 52 11 101
21 108 21 6 1 12 5 12 10 0 5 5 6 10 3 6 -3 10 -1 10 5 0 6 4 9 9 6 13 -8 21
20 9 32 -6 6 -6 12 1 17 7 4 10 1 9 -7 -2 -7 3 -12 11 -10 12 3 12 0 1 -13 -7
-8 -10 -19 -6 -22 4 -4 11 -1 16 7 6 8 10 11 10 6 0 -5 7 -2 17 5 9 8 18 13
20 12 1 -2 3 0 4 5 0 4 4 12 9 17 5 6 -6 10 -30 11 -26 1 -37 -3 -33 -10 4 -6
0 -5 -9 1 -8 7 -17 11 -19 9 -2 -3 -40 -7 -84 -11 -44 -3 -134 -12 -200 -20
-235 -28 -404 -36 -720 -34 -176 1 -338 -2 -360 -6 -67 -12 -171 -73 -223
-130 -26 -28 -167 -232 -315 -453 -259 -388 -268 -401 -291 -391 -24 11 -23
13 100 201 251 382 447 672 482 710 48 54 111 95 180 120 53 18 79 20 387 18
347 -1 515 8 730 40 168 25 187 29 201 41 6 5 23 10 38 11 18 2 25 7 21 17 -4
11 -3 12 10 1 18 -15 21 0 3 18 -9 9 -15 9 -27 0 -9 -7 -13 -8 -9 -4 4 5 2 16
-5 25 -10 14 -10 14 3 4 22 -17 30 -16 44 3 10 13 15 14 21 5 4 -7 3 -17 -3
-23 -6 -6 -8 -17 -5 -25 4 -11 9 -9 20 7 11 16 18 18 28 10 10 -8 12 -4 10 20
-1 17 -5 33 -8 36 -8 9 -77 -7 -77 -18 0 -5 -4 -7 -9 -3 -6 3 -61 -4 -123 -15
-291 -52 -612 -74 -944 -64 -248 7 -292 3 -389 -42 -28 -12 -77 -42 -109 -66
-62 -45 -77 -67 -555 -795 l-112 -172 -181 110 c-99 61 -182 108 -185 106 -2
-3 75 -56 171 -118 97 -63 174 -119 172 -124 -2 -6 -174 -269 -382 -583 -209
-315 -457 -691 -552 -835 -95 -144 -337 -509 -537 -812 l-364 -550 -111 -980
c-114 -1008 -328 -2930 -376 -3388 l-28 -258 -100 7 c-115 7 -314 -8 -456 -36
-218 -42 -443 -123 -670 -242 -116 -60 -173 -94 -327 -195 l-23 -15 0 149 0
149 53 18 c203 72 426 214 623 398 119 112 215 264 244 387 33 143 -34 294
-166 373 -33 20 -54 40 -54 50 0 17 18 18 253 19 l252 0 187 257 186 257 -249
3 c-137 1 -249 4 -249 7 0 3 61 88 135 189 74 101 135 186 135 190 0 3 -368 6
-817 6 l-818 0 -198 -197 -199 -198 114 172 c62 95 201 306 309 470 422 639
4182 6343 4344 6588 177 269 304 461 753 1140 146 220 267 406 269 413 3 6 8
12 12 12 5 0 71 -69 148 -152z m-3603 -458 c-37 -55 -70 -97 -74 -95 -4 3 -7
-1 -6 -8 1 -13 -833 -1277 -843 -1277 -3 1 -28 39 -55 85 -56 96 -181 266
-257 350 -39 42 -49 59 -40 68 8 8 11 8 11 -2 0 -7 4 -10 9 -7 5 4 7 -4 4 -16
-5 -18 -3 -21 7 -11 16 15 40 6 40 -15 0 -13 -3 -12 -16 4 -19 23 -8 -1 18
-38 19 -28 40 -31 61 -8 10 12 9 12 -5 2 -11 -9 -18 -10 -23 -2 -3 6 -11 8
-16 5 -5 -4 -9 -2 -9 3 0 15 13 22 24 12 8 -6 12 -2 13 13 2 17 0 19 -7 7 -8
-12 -10 -10 -11 10 l-1 25 -8 -25 c-7 -23 -8 -23 -9 -3 -1 27 18 41 30 22 7
-11 9 -10 9 4 0 19 -13 22 -39 7 -14 -7 -23 -4 -37 11 -16 18 -16 19 -1 13 9
-3 17 -11 17 -18 0 -6 5 -4 10 4 5 8 10 11 10 6 0 -6 6 -1 14 10 13 17 12 20
-2 26 -14 6 -13 7 4 5 11 -1 20 3 20 8 -1 6 -3 9 -6 8 -3 -1 -6 7 -6 18 0 19
1 18 19 -3 l18 -23 -5 25 c-3 14 -3 19 0 12 4 -9 9 -10 19 -2 8 7 15 7 19 1 3
-5 20 -7 38 -4 28 4 30 3 19 -11 -7 -8 -18 -14 -24 -13 -7 1 -11 -6 -11 -15 1
-10 -3 -15 -9 -11 -6 3 -7 1 -3 -5 4 -8 2 -10 -7 -6 -8 3 -18 1 -22 -5 -3 -6
-1 -11 4 -11 6 0 12 -10 12 -22 1 -21 2 -21 6 -3 3 11 10 25 15 30 8 7 9 5 5
-7 -4 -11 -2 -17 6 -15 7 1 11 -4 9 -12 -3 -12 0 -12 12 -1 17 14 22 25 7 15
-6 -3 -14 3 -20 13 -7 14 -5 21 9 30 16 10 19 8 23 -11 5 -19 5 -19 4 3 -1 14
3 26 8 28 6 1 10 -2 10 -7 0 -5 4 -13 8 -18 5 -4 7 -1 5 7 -2 8 3 14 9 15 13
0 50 45 37 45 -3 0 -1 6 5 14 6 7 9 24 7 37 -3 13 -5 26 -5 29 -1 3 -5 -2 -11
-10 -5 -9 -5 -19 1 -27 12 -14 2 -36 -12 -28 -5 4 -7 20 -4 37 5 26 4 29 -9
19 -16 -13 -10 -50 10 -66 10 -8 10 -13 1 -25 -7 -9 -18 -15 -24 -15 -15 0
-18 20 -3 20 12 0 13 5 5 30 -11 35 -23 50 -36 47 -7 -2 2 13 21 32 19 20 39
36 43 36 4 0 -6 -13 -22 -30 -17 -16 -27 -32 -22 -35 5 -3 19 7 30 21 12 15
21 21 21 13 0 -12 2 -12 9 0 5 8 7 21 4 30 -4 12 -3 13 5 3 7 -11 10 -11 15 1
3 9 -1 18 -9 21 -8 3 -14 10 -14 16 0 6 10 2 22 -9 16 -16 25 -18 35 -10 7 6
10 16 6 22 -3 5 -1 7 5 3 6 -3 13 3 17 14 4 11 12 19 18 18 7 -2 26 12 43 30
28 28 33 30 38 15 4 -10 4 -14 0 -11 -9 10 -44 -10 -44 -24 0 -9 3 -9 12 0 16
16 43 15 58 -3 14 -17 0 -21 -16 -5 -12 12 -47 2 -39 -10 3 -5 1 -11 -5 -15
-5 -3 -10 1 -10 10 0 9 -5 13 -10 10 -6 -4 -8 -11 -5 -16 4 -5 1 -9 -6 -9 -6
0 -9 -8 -6 -20 3 -11 1 -18 -4 -14 -5 3 -6 -1 -3 -9 3 -8 1 -17 -4 -21 -10 -6
-8 38 3 69 6 16 3 15 -13 -5 -13 -15 -18 -30 -13 -40 9 -19 8 -51 -3 -68 -5
-9 -3 -19 6 -28 13 -13 15 -13 15 0 0 8 -4 13 -9 10 -4 -3 -8 -1 -8 5 0 16 18
22 27 9 11 -18 11 -31 -1 -48 -9 -13 -9 -13 6 -2 20 16 18 34 -6 61 -10 11
-13 21 -7 25 5 4 15 -2 21 -11 10 -17 10 -17 8 2 -2 16 3 20 27 20 47 1 56 11
46 53 -1 2 -6 0 -11 -3 -8 -5 -8 -11 0 -20 7 -8 7 -15 1 -19 -5 -4 -12 -2 -16
4 -4 6 -12 7 -18 3 -25 -16 -35 -11 -32 16 5 38 6 39 15 11 7 -23 8 -23 9 -3
1 12 6 25 12 29 8 4 9 -1 5 -17 -7 -23 -6 -23 6 -4 7 11 19 21 26 23 6 1 16 3
21 5 5 1 9 -2 9 -8 0 -5 -4 -9 -9 -8 -4 2 -6 -4 -3 -12 11 -28 46 29 38 62 -7
25 -5 27 9 15 8 -7 14 -23 12 -34 -3 -11 -1 -17 3 -14 4 4 7 11 7 14 0 4 4 14
9 22 5 8 6 12 1 8 -4 -4 -14 -3 -21 3 -16 13 0 54 17 44 5 -4 12 1 15 9 7 19
24 11 24 -10 0 -8 -4 -13 -9 -9 -15 9 -23 -13 -11 -32 9 -16 10 -15 5 5 -5 16
-3 22 7 20 7 -2 14 6 14 17 3 38 4 40 15 25 8 -12 9 -10 4 7 -3 12 -1 24 5 28
9 5 14 -6 12 -26 -1 -3 5 -6 13 -6 11 0 10 6 -5 27 -12 17 -16 31 -10 40 10
16 3 33 -11 24 -5 -3 -7 -10 -4 -15 4 -5 2 -9 -3 -9 -6 0 -8 -10 -6 -22 3 -15
2 -18 -3 -8 -8 15 -33 25 -33 14 0 -4 8 -13 18 -20 14 -11 15 -15 3 -26 -12
-11 -13 -10 -8 5 4 11 3 16 -3 12 -6 -3 -10 -1 -10 5 0 6 -5 8 -11 4 -7 -4 -7
-10 -1 -16 18 -18 3 -39 -19 -28 -15 9 -18 7 -13 -7 5 -15 4 -16 -5 -3 -15 20
-14 41 2 38 6 -2 11 3 9 10 -1 6 1 11 5 10 5 -2 9 2 11 7 2 6 10 14 19 19 13
7 13 10 2 17 -11 6 -8 13 11 33 13 15 27 26 32 26 5 0 -3 -10 -18 -23 -25 -22
-25 -24 -8 -37 16 -13 17 -13 11 2 -4 11 -2 17 6 15 7 -1 11 4 9 11 -1 8 1 11
6 8 11 -6 26 5 39 28 9 17 11 15 21 -13 10 -29 9 -33 -12 -41 -24 -9 -45 -42
-24 -37 7 1 12 -3 13 -10 0 -6 4 -15 9 -20 5 -5 6 -3 2 5 -4 7 -2 12 6 13 10
0 10 2 0 6 -6 2 -9 10 -6 15 4 7 2 8 -4 4 -7 -4 -12 -2 -12 3 0 20 27 11 38
-11 l11 -23 -2 25 c-1 14 3 25 11 25 6 0 12 5 11 10 -1 6 -5 9 -10 8 -5 -2 -9
2 -9 7 0 19 -2 25 -10 35 -5 6 -5 17 0 25 10 16 13 9 13 -35 -1 -18 0 -18 13
-1 10 14 10 22 1 37 -12 20 -37 26 -37 9 0 -5 -5 -10 -11 -10 -6 0 -7 6 -2 12
4 7 7 22 8 33 0 12 7 20 17 20 9 0 29 11 45 25 24 21 25 22 9 3 -17 -21 -17
-23 -3 -24 10 -1 23 -2 30 -3 22 -3 36 17 25 37 -5 10 -7 26 -5 35 3 12 5 11
6 -5 0 -13 6 -23 12 -23 5 0 7 -4 4 -10 -3 -5 -1 -10 4 -10 6 0 11 7 11 15 0
8 -4 15 -8 15 -4 0 -9 10 -9 22 -1 13 1 18 5 13 19 -26 39 -9 33 28 0 4 2 6 7
6 19 -3 26 2 13 10 -9 6 -4 8 17 8 23 -1 30 -6 29 -20 -1 -16 -3 -17 -13 -2
-10 14 -12 13 -17 -6 -3 -11 -10 -18 -16 -14 -6 3 -11 1 -11 -4 0 -6 7 -11 15
-11 13 0 13 -2 3 -14 -9 -9 -15 -10 -20 -3 -9 15 -19 -31 -15 -71 6 -54 15
-47 12 10 -3 41 -2 46 4 23 8 -29 9 -29 10 -4 1 24 31 39 31 15 0 -6 7 0 16
12 16 23 17 23 38 5 l21 -18 -19 23 c-17 20 -15 27 7 23 4 0 6 5 5 12 -2 6 2
11 8 10 6 -1 11 4 11 12 0 8 -4 12 -9 9 -4 -3 -8 -1 -8 5 0 19 19 21 29 4 7
-12 10 -13 11 -4 0 11 3 11 17 0 15 -13 15 -12 2 8 -8 14 -16 18 -20 12 -4 -6
-9 -7 -12 -2 -5 8 5 33 15 36 3 1 13 -5 24 -13 15 -11 16 -11 7 0 -7 8 -13 21
-13 29 0 11 5 10 22 -5 12 -10 19 -14 15 -8 -4 6 2 19 13 29 11 10 17 21 15
26 -3 4 -1 10 4 13 11 7 3 46 -10 46 -13 0 -21 -19 -12 -32 12 -20 11 -31 -5
-50 -15 -18 -32 -16 -32 3 0 6 5 7 10 4 6 -3 13 2 17 11 4 10 2 19 -4 21 -6 2
-8 13 -5 25 3 15 1 19 -7 14 -6 -4 -9 -11 -6 -16 5 -7 -19 -22 -39 -24 -5 -1
-11 -7 -14 -14 -2 -8 3 -10 15 -6 16 5 16 4 1 -5 -10 -7 -14 -19 -10 -33 4
-16 2 -19 -8 -13 -8 5 -11 4 -7 -1 3 -6 2 -16 -4 -24 -7 -13 -9 -13 -9 -1 0
11 -4 9 -15 -5 -15 -19 -15 -19 -9 1 l7 20 -17 -20 c-10 -11 -15 -15 -12 -8 4
7 -1 9 -16 6 -14 -4 -20 -2 -15 3 5 5 13 10 18 10 5 1 13 2 18 3 6 0 8 10 6
20 -2 13 1 18 9 15 6 -2 12 5 13 17 2 18 0 19 -15 7 -15 -12 -16 -11 -3 4 7
10 17 15 22 12 15 -9 10 -44 -6 -50 -8 -4 -12 -10 -9 -16 3 -5 14 -2 24 7 17
16 19 42 5 65 -4 6 -2 9 3 8 5 -2 18 8 29 21 28 34 82 38 106 8 11 -14 15 -16
11 -5 -6 17 10 19 33 5 6 -4 15 -3 18 3 4 6 1 9 -7 8 -7 -2 -12 2 -11 8 1 7
-10 11 -25 10 -15 -1 -45 1 -67 5 -25 4 6 7 83 8 l122 1 -66 -100z m-220 41
c-2 -3 -12 3 -22 13 -16 17 -16 18 5 5 12 -7 20 -15 17 -18z m110 3 c3 -8 2
-12 -4 -9 -6 3 -10 10 -10 16 0 14 7 11 14 -7z m-171 -29 c-3 -9 -8 -14 -10
-11 -3 3 -2 9 2 15 9 16 15 13 8 -4z m137 -6 c0 -6 -5 -7 -10 -4 -6 4 -17 -8
-24 -26 -11 -26 -15 -29 -17 -14 -2 10 5 29 16 41 19 22 35 23 35 3z m-143
-38 c0 -11 -7 -17 -14 -14 -9 4 -9 8 0 19 16 17 16 17 14 -5z m-35 -28 c-6 -2
-10 -8 -8 -12 3 -4 -1 -8 -9 -8 -11 0 -12 4 -4 14 6 7 17 13 23 12 7 0 6 -2
-2 -6z m83 -43 c-2 -24 -50 -77 -70 -77 -8 0 -11 5 -7 11 4 6 7 14 7 19 0 4 5
6 10 5 6 -2 9 -7 7 -11 -1 -5 2 -6 7 -3 5 4 8 15 6 25 -2 10 1 24 7 32 8 11 9
11 4 -3 -3 -10 0 -20 7 -24 7 -4 9 -4 5 1 -4 4 -3 16 3 26 13 24 16 24 14 -1z
m-128 -32 c-3 -8 -6 -5 -6 6 -1 11 2 17 5 13 3 -3 4 -12 1 -19z m8950 -109
c-71 -194 -204 -422 -349 -594 -104 -123 -487 -498 -644 -629 -426 -356 -918
-665 -1402 -880 l-98 -43 -118 141 -119 141 69 30 c140 60 493 243 619 322
446 278 840 626 1086 959 58 79 105 99 195 83 36 -6 115 -9 173 -7 94 4 116 8
174 36 82 38 231 178 307 288 49 71 129 227 131 255 0 8 2 9 5 3 3 -6 -11 -53
-29 -105z m-8997 37 c0 -2 -7 -7 -16 -10 -8 -3 -12 -2 -9 4 6 10 25 14 25 6z
m-137 -70 c9 5 9 4 0 -6 -6 -7 -9 -20 -6 -29 4 -9 3 -13 -1 -10 -4 4 -9 19
-11 35 -2 16 -2 23 1 16 3 -6 11 -9 17 -6z m6552 -150 c-9 -13 -12 -26 -8 -28
16 -8 38 -3 38 9 0 6 3 14 7 18 12 12 3 -22 -10 -38 -13 -15 -35 -17 -48 -4
-4 4 -13 2 -20 -4 -21 -17 -25 7 -4 26 11 10 20 14 20 9 0 -5 7 2 16 14 21 30
29 28 9 -2z m-7875 10 c0 -3 -15 -15 -32 -27 l-33 -23 24 27 c22 24 41 35 41
23z m1150 1 c0 -2 -10 -12 -22 -23 l-23 -19 19 23 c18 21 26 27 26 19z m48
-11 c-7 -8 -15 -12 -17 -11 -5 6 10 25 20 25 5 0 4 -6 -3 -14z m-35 -13 c-7
-2 -13 -12 -13 -20 0 -9 -3 -14 -6 -10 -10 10 4 37 18 36 10 0 10 -2 1 -6z
m-1070 -137 c139 -105 211 -166 340 -294 445 -438 660 -932 659 -1517 0 -364
-74 -668 -252 -1030 -304 -621 -878 -1217 -1700 -1767 -1822 -1218 -4635
-2042 -7630 -2232 -785 -50 -1803 -53 -2525 -8 l-106 7 181 134 c324 239 786
603 730 575 -26 -13 -487 -361 -673 -508 -98 -78 -196 -154 -218 -170 l-39
-30 -162 12 c-175 12 -192 18 -191 69 0 20 162 279 553 883 304 470 562 865
573 878 12 12 45 34 74 49 51 24 65 26 276 34 2875 107 5256 615 6552 1399
768 464 1164 1026 1165 1653 l1 122 251 205 c385 313 917 753 1287 1064 184
155 418 347 520 428 l186 146 28 -16 c16 -10 70 -48 120 -86z m1087 50 c-6 -9
-8 -26 -4 -43 7 -26 6 -27 -10 -14 -20 17 -53 77 -37 67 6 -4 11 -2 11 3 0 6
5 11 11 11 5 0 8 -4 4 -9 -3 -5 -1 -12 4 -15 5 -3 12 1 15 9 3 9 -1 18 -9 21
-8 4 -12 10 -9 16 3 5 13 0 21 -12 11 -16 12 -24 3 -34z m-118 -8 c-8 -8 -9
-4 -5 13 4 13 8 18 11 10 2 -7 -1 -18 -6 -23z m-29 -13 c-3 -9 -8 -14 -10 -11
-3 3 -2 9 2 15 9 16 15 13 8 -4z m10675 -34 c-26 -37 -154 -178 -274 -301 -66
-69 -150 -156 -185 -195 -397 -431 -979 -909 -1553 -1274 -244 -156 -485 -291
-762 -430 -201 -100 -287 -140 -269 -123 199 178 486 426 571 492 17 14 74 59
125 101 269 218 605 486 778 620 259 200 476 364 611 464 90 66 198 145 239
176 111 81 380 265 498 340 57 35 131 83 165 106 75 49 73 48 56 24z m-10584
1 c3 -5 -1 -9 -9 -9 -8 0 -15 4 -15 9 0 4 4 8 9 8 6 0 12 -4 15 -8z m6911 -81
c3 -5 2 -12 -3 -15 -5 -3 -9 1 -9 9 0 17 3 19 12 6z m-7208 -93 c-3 -8 -6 -5
-6 6 -1 11 2 17 5 13 3 -3 4 -12 1 -19z m37 13 c3 -5 -1 -11 -9 -14 -9 -4 -12
-1 -8 9 6 16 10 17 17 5z m-53 -28 c13 -16 12 -17 -3 -4 -17 13 -22 21 -14 21
2 0 10 -8 17 -17z m59 -2 c0 -13 -50 -71 -61 -71 -6 0 3 11 18 25 24 21 26 26
13 36 -13 9 -12 10 3 5 9 -3 17 -1 17 4 0 6 2 10 5 10 3 0 5 -4 5 -9z m9859
-224 c-262 -258 -378 -369 -564 -541 -82 -77 -181 -169 -220 -205 -38 -36 -95
-88 -125 -115 -30 -27 -80 -72 -110 -100 -54 -50 -293 -265 -534 -481 -71 -63
-194 -169 -351 -300 -104 -88 -203 -172 -220 -187 -16 -15 -53 -37 -82 -49
l-53 -21 -23 28 c-13 16 -82 99 -153 184 -71 85 -135 163 -142 172 -12 15 3
25 155 101 506 253 949 551 1418 953 172 147 537 508 643 636 106 127 110 128
362 128 l205 -1 -206 -202z m-10066 148 c-3 -9 -8 -14 -10 -11 -3 3 -2 9 2 15
9 16 15 13 8 -4z m7437 -250 c0 -2 -10 -9 -22 -15 -22 -11 -22 -10 -4 4 21 17
26 19 26 11z m-1624 -88 c1 -11 0 -16 -3 -13 -4 3 -16 -2 -27 -11 -16 -14 -18
-15 -8 -2 7 9 9 24 6 34 -5 13 -2 16 11 14 10 -2 19 -12 21 -22z m51 -184 c0
-9 -4 -10 -14 -2 -10 9 -13 7 -13 -6 0 -10 -3 -16 -6 -12 -10 10 3 34 18 34 8
0 15 -6 15 -14z m912 -447 c84 -104 118 -152 109 -157 -44 -23 -538 -174 -543
-166 -1 1 52 91 119 199 67 108 134 218 149 244 16 26 32 43 37 38 4 -5 63
-76 129 -158z m-544 101 c-3 -12 -7 -32 -8 -44 0 -12 -4 -20 -7 -18 -4 2 -5
19 -4 37 3 30 3 31 -5 8 -6 -17 -9 -20 -10 -7 -1 22 20 57 31 51 4 -3 6 -15 3
-27z m-72 -37 c10 -12 9 -12 -4 -2 -9 6 -18 9 -21 6 -3 -3 -9 -1 -12 4 -9 15
22 8 37 -8z m-9699 -293 c18 -13 17 -17 -27 -82 l-47 -69 -11 34 c-7 19 -33
76 -59 127 l-47 92 86 -44 c47 -24 94 -50 105 -58z m256 -170 c36 -28 89 -74
119 -103 l54 -52 -24 -38 c-23 -38 -23 -38 -2 -24 12 8 50 41 86 73 65 57 77
65 77 48 0 -16 -169 -143 -180 -136 -6 3 -16 0 -24 -7 -15 -14 -91 -79 -163
-139 l-46 -38 -47 67 c-26 37 -68 90 -92 117 -32 35 -47 62 -52 92 -7 39 -4
46 64 147 l71 106 47 -31 c26 -18 76 -55 112 -82z m10425 -48 c64 -77 115
-142 113 -145 -9 -8 -273 -105 -418 -152 -246 -80 -487 -141 -746 -186 l-134
-23 34 61 c18 33 51 93 73 131 21 39 57 97 79 130 44 67 24 58 259 119 153 40
388 116 530 170 50 20 91 35 92 36 1 0 54 -63 118 -141z m-3595 -109 c8 -5 11
-10 5 -10 -5 0 -21 10 -35 21 -24 20 -5 13 30 -11z m2600 -28 c0 -21 -218
-357 -242 -373 -24 -16 -473 -51 -826 -65 -193 -8 -197 -10 -168 -70 9 -19 16
-42 16 -52 0 -9 -23 -52 -52 -94 l-52 -76 -105 55 c-58 31 -108 58 -110 60 -3
2 30 54 72 116 42 62 79 126 83 143 3 18 -2 53 -15 92 -27 78 -27 118 -2 132
11 5 83 10 163 10 172 0 431 15 628 35 140 15 570 82 579 91 7 7 31 4 31 -4z
m-2566 -15 c16 -12 -11 -56 -310 -507 -1076 -1626 -1317 -1993 -1322 -2012 -7
-27 10 -22 103 28 102 55 129 55 133 2 4 -52 -63 -663 -363 -3298 -63 -558
-133 -1172 -155 -1365 -22 -192 -43 -365 -46 -383 l-5 -33 -51 46 c-61 55
-188 119 -283 142 -38 10 -71 18 -73 19 -4 2 215 1988 418 3786 l91 803 62 95
c50 78 678 1031 1625 2467 81 123 150 223 153 223 3 0 13 -6 23 -13z m156 -74
c60 -38 107 -70 105 -72 -2 -2 -48 24 -102 58 -126 78 -130 81 -119 81 4 0 57
-30 116 -67z m-7006 -123 c-37 -55 -70 -100 -74 -100 -8 0 -35 59 -29 64 80
61 149 118 154 126 3 5 8 10 11 10 2 0 -26 -45 -62 -100z m7173 -3 l51 -33
-580 -840 c-319 -461 -614 -888 -655 -947 -44 -64 -73 -116 -71 -127 3 -18 9
-16 71 22 46 28 71 38 78 31 7 -7 -68 -707 -236 -2204 -135 -1207 -269 -2402
-297 -2656 l-52 -463 -228 0 c-215 0 -228 1 -228 18 0 11 47 430 105 933 184
1599 334 2906 400 3502 36 318 68 584 72 590 4 7 263 388 577 847 314 459 615
901 671 982 55 81 135 199 179 263 43 63 81 115 85 115 3 0 29 -15 58 -33z
m3698 -200 c156 -186 164 -198 143 -206 -663 -261 -1181 -402 -1785 -485 -298
-41 -280 -40 -294 -15 -16 30 -13 89 6 157 16 53 119 286 136 306 4 5 74 17
156 27 450 57 967 200 1371 379 48 21 90 37 94 37 4 -1 81 -91 173 -200z
m-3589 152 c19 -11 34 -23 34 -26 0 -4 -62 30 -79 44 -16 12 18 -1 45 -18z
m84 -55 c0 -2 -9 0 -20 6 -11 6 -20 13 -20 16 0 2 9 0 20 -6 11 -6 20 -13 20
-16z m-7247 -91 c-20 -76 -84 -243 -93 -243 -4 0 -10 25 -14 57 l-7 56 62 94
c34 51 63 93 64 93 2 0 -4 -26 -12 -57z m9022 -100 c-37 -71 -68 -129 -69
-129 0 -1 -20 -5 -44 -9 l-43 -7 64 86 c36 47 80 108 98 136 19 27 40 50 47
50 9 0 -12 -49 -53 -127z m-1525 27 l23 -16 -75 -104 c-41 -58 -164 -233 -275
-390 -110 -157 -285 -406 -390 -555 -244 -347 -247 -351 -239 -370 5 -15 9
-14 35 4 16 12 39 21 50 21 17 0 21 -6 21 -32 0 -30 -52 -493 -377 -3390 -54
-482 -102 -874 -106 -871 -5 3 -6 -5 -2 -18 5 -19 4 -21 -4 -9 -9 13 -11 13
-11 -2 0 -10 6 -18 13 -18 7 0 5 -5 -5 -10 -9 -6 -15 -16 -14 -23 2 -6 6 -29
11 -50 4 -21 3 -43 -2 -50 -5 -6 -9 -25 -8 -42 3 -34 -12 -58 -28 -48 -6 4 -8
0 -4 -11 4 -10 1 -19 -8 -22 -8 -4 -15 -10 -15 -16 0 -5 5 -6 10 -3 6 3 10 -1
10 -9 0 -8 4 -17 9 -21 6 -3 8 6 5 20 -2 14 -1 25 4 25 15 0 11 -44 -5 -62 -9
-10 -13 -18 -8 -18 4 0 3 -6 -3 -12 -5 -7 -9 -30 -8 -50 1 -21 0 -35 -3 -32
-4 3 -5 9 -4 12 2 10 -18 32 -29 32 -6 0 -5 -7 2 -15 7 -8 9 -15 5 -15 -4 0
-2 -6 4 -13 6 -8 7 -18 3 -22 -4 -5 1 -5 11 -2 23 8 33 -15 17 -40 -10 -15
-10 -14 -6 9 5 22 3 26 -9 22 -8 -3 -12 -11 -8 -18 4 -6 -1 -5 -10 3 -9 7 -15
17 -12 21 3 5 1 11 -4 14 -22 14 -19 -15 5 -44 30 -35 28 -41 -15 -45 -22 -2
-28 1 -24 12 5 12 7 12 15 1 9 -13 6 14 -6 71 -7 32 -10 33 -25 9 -7 -11 -8
-17 -2 -13 16 9 24 -20 16 -53 -6 -26 -7 -26 -21 -8 -18 25 -18 42 -1 27 10
-8 14 -7 14 4 0 8 -3 13 -5 10 -3 -3 -11 0 -18 6 -10 8 -11 4 -8 -18 10 -61 8
-87 -5 -78 -5 3 -12 1 -16 -5 -9 -15 -15 -54 -7 -46 7 7 8 12 11 38 1 9 4 9
13 0 9 -9 4 -23 -22 -59 -18 -27 -26 -42 -18 -36 8 7 18 11 21 8 4 -3 5 -2 2
1 -7 11 15 45 26 39 5 -4 9 -17 9 -31 0 -14 4 -23 9 -20 8 5 8 27 1 46 -1 3
-2 9 -1 13 1 4 -3 16 -8 26 -7 13 -6 24 5 37 10 13 14 14 11 4 -2 -8 3 -23 11
-33 13 -15 14 -22 4 -38 -13 -21 -3 -26 15 -8 14 14 -4 72 -20 62 -6 -3 -7 -1
-3 5 15 25 29 9 42 -50 2 -10 0 -18 -4 -18 -5 0 -9 -7 -9 -15 0 -8 4 -15 9
-15 4 0 8 -5 8 -10 0 -6 -3 -9 -7 -8 -5 0 -16 -2 -26 -7 -14 -6 -15 -10 -6
-21 9 -11 8 -18 -1 -29 -13 -16 -10 -18 13 -9 10 4 14 14 11 32 -3 15 -3 24 1
21 13 -14 13 -50 0 -56 -8 -3 -12 -10 -9 -15 4 -6 -3 -5 -15 2 -18 9 -20 14
-10 26 6 8 10 17 7 19 -3 3 -11 -1 -17 -9 -15 -18 -5 -59 12 -50 8 5 8 3 0 -6
-9 -10 -10 -17 -2 -27 8 -9 8 -13 1 -13 -17 0 -3 -28 16 -34 10 -2 4 -3 -13
-2 -38 4 -60 -11 -44 -30 6 -8 16 -14 21 -14 6 0 5 7 -2 15 -10 12 -10 15 3
15 14 0 18 -23 5 -35 -10 -10 3 -44 15 -41 7 2 8 1 3 -2 -4 -2 -2 -8 5 -13 10
-6 10 -9 2 -9 -7 0 -10 -7 -6 -17 3 -10 3 -15 -1 -11 -4 3 -8 12 -10 20 -1 7
-6 20 -11 28 -10 15 -11 18 -14 43 -2 6 -6 3 -11 -8 -5 -13 -3 -26 7 -36 12
-14 12 -18 -4 -24 -10 -5 -22 -7 -26 -6 -5 1 -7 -4 -4 -11 2 -7 11 -12 21 -10
9 2 16 -2 16 -7 0 -13 -35 -32 -44 -24 -3 3 -6 2 -6 -4 0 -16 -138 -95 -152
-87 -6 4 -8 3 -5 -3 4 -6 -16 -24 -44 -42 -40 -25 -61 -31 -105 -31 -41 0 -54
4 -54 15 0 21 588 5222 596 5265 3 19 15 53 27 76 12 22 278 408 590 857 l569
817 57 -32 c32 -18 68 -40 81 -48z m238 -140 c3 -7 -21 5 -52 26 -31 20 -56
39 -56 41 0 9 105 -56 108 -67z m3292 21 c-42 -36 -44 -40 -29 -57 110 -128
687 -837 638 -784 -23 25 -181 209 -351 410 -171 201 -314 366 -319 368 -4 2
-120 -93 -256 -210 -364 -314 -783 -669 -783 -664 0 6 387 342 772 670 194
166 255 223 247 233 -17 19 -1 35 21 21 15 -10 24 -7 54 20 20 18 40 32 44 32
4 0 -13 -18 -38 -39z m-3182 -118 l92 -64 -207 -307 c-114 -169 -242 -359
-285 -422 -43 -63 -77 -121 -76 -130 2 -9 14 -15 33 -15 27 0 30 -4 33 -33 4
-44 -177 -1633 -188 -1652 -49 -80 -71 -122 -68 -126 3 -2 18 16 34 41 16 26
30 42 31 38 1 -4 -18 -174 -42 -378 -54 -455 -54 -451 -54 -500 0 -39 0 -40
-16 -17 -16 21 -35 22 -35 1 0 -6 6 -7 13 -3 7 5 6 0 -3 -11 -14 -17 -13 -18
3 -12 9 3 17 2 17 -3 0 -6 -7 -10 -16 -10 -8 0 -12 -4 -9 -10 4 -6 -1 -7 -12
-4 -16 5 -16 4 1 -10 15 -12 16 -16 5 -16 -11 0 -11 -2 -1 -9 11 -6 10 -10 -3
-15 -10 -3 -23 -2 -30 4 -8 7 -16 5 -27 -8 -17 -20 -17 -48 0 -44 9 2 10 -3 4
-15 -5 -10 -7 -25 -5 -33 4 -13 3 -13 -6 0 -9 13 -13 12 -31 -7 -11 -12 -20
-28 -20 -35 0 -9 3 -9 11 2 9 12 10 12 5 -3 -4 -12 -2 -17 6 -14 7 2 12 13 12
25 -1 12 2 19 6 17 19 -11 -5 -59 -25 -51 -18 7 -27 -5 -14 -20 7 -8 7 -14 -1
-19 -6 -4 -9 -1 -8 5 2 7 -5 14 -14 15 -21 4 -24 -11 -5 -19 7 -3 6 -5 -3 -3
-9 1 -15 -1 -15 -4 0 -3 -7 -14 -15 -24 -8 -10 -14 -28 -13 -39 3 -20 2 -20
-7 2 -10 25 -26 31 -16 6 3 -8 2 -12 -4 -9 -5 3 -14 20 -19 38 l-9 32 -1 -28
c-1 -18 8 -36 23 -50 24 -22 24 -23 6 -47 -10 -13 -16 -28 -13 -32 2 -5 -1 -7
-8 -6 -6 2 -14 -3 -16 -10 -3 -8 1 -10 14 -5 13 4 12 1 -6 -15 -13 -12 -28
-22 -32 -22 -4 0 -6 -9 -4 -19 3 -14 -1 -18 -11 -14 -8 3 -14 2 -13 -3 3 -20
-2 -34 -12 -34 -8 0 -8 5 1 15 8 10 9 15 2 15 -6 0 -16 -8 -21 -17 -6 -10 -11
-13 -11 -6 0 6 5 15 10 18 6 4 7 12 3 18 -4 7 -9 21 -10 31 -6 35 -15 32 -13
-4 1 -19 1 -39 0 -45 -1 -5 -2 -19 -2 -30 1 -17 0 -17 -4 -2 -3 9 -9 15 -14
12 -4 -3 -7 3 -5 12 1 10 -2 26 -6 35 -5 10 -5 19 0 23 5 3 11 -5 14 -17 2
-13 4 -6 4 15 0 21 -4 40 -8 43 -4 2 -5 17 -3 31 3 15 2 25 -1 21 -4 -3 -7
-12 -9 -20 -1 -7 -5 -19 -10 -26 -4 -8 -3 -11 5 -10 6 2 14 -3 17 -11 3 -9 0
-11 -8 -6 -9 5 -11 4 -6 -3 4 -7 2 -12 -4 -12 -7 0 -9 -8 -5 -21 5 -16 4 -19
-5 -14 -8 5 -11 4 -6 -3 3 -6 2 -13 -3 -17 -6 -3 -7 -13 -4 -22 4 -11 3 -14
-6 -9 -11 7 -11 41 1 61 7 12 5 62 -4 70 -3 3 -4 -9 -3 -27 2 -18 0 -37 -3
-43 -10 -15 -13 -35 -16 -90 -1 -27 -4 -54 -7 -60 -4 -5 -5 -26 -3 -45 2 -28
1 -32 -8 -17 -7 13 -5 61 6 160 9 78 88 777 176 1554 135 1189 164 1424 185
1491 28 88 23 81 456 746 159 243 288 432 294 429 5 -4 52 -35 103 -70z m994
44 c-109 -146 -218 -252 -272 -267 -48 -13 -127 3 -246 50 -78 31 -206 88
-213 95 -6 6 71 95 93 108 31 17 111 22 394 24 194 1 251 -1 244 -10z m-807
-94 c30 -15 55 -30 55 -34 0 -4 -8 -17 -18 -29 l-18 -23 -52 37 c-46 33 -50
39 -39 57 6 10 13 19 14 19 1 0 27 -12 58 -27z m110 -165 c190 -146 265 -227
265 -283 0 -109 -164 -448 -497 -1030 -188 -329 -217 -375 -221 -354 -4 19
135 1236 148 1300 22 110 77 237 144 333 37 53 70 96 74 96 3 0 42 -28 87 -62z
m925 -449 c140 -110 254 -192 445 -319 94 -62 175 -118 180 -123 12 -12 28
-20 -175 93 -374 210 -701 368 -808 391 -58 12 -57 11 -27 85 14 35 64 76 109
91 28 9 34 5 105 -67 42 -42 119 -110 171 -151z m-420 14 c0 -10 -38 -333 -85
-718 -46 -385 -87 -734 -90 -775 -4 -52 -11 -80 -23 -93 -17 -16 -18 -16 -20
10 -1 16 -6 29 -12 31 -5 2 -6 11 -3 19 6 14 8 14 14 -3 7 -17 8 -17 8 4 1 12
-4 22 -10 22 -5 0 -7 5 -3 12 4 7 3 8 -4 4 -7 -4 -12 0 -13 11 0 11 -3 13 -6
5 -3 -7 0 -18 5 -25 7 -8 7 -18 2 -27 -8 -12 -10 -11 -11 5 l0 20 -8 -20 c-5
-11 -4 -25 1 -32 5 -6 8 -17 7 -25 -4 -32 1 -49 14 -42 9 5 9 4 0 -6 -10 -11
-9 -18 5 -34 17 -21 17 -21 -4 -3 -20 17 -22 22 -25 73 -1 19 -4 22 -10 13
-10 -17 -2 -68 14 -88 9 -10 4 -10 -14 3 -23 15 -27 15 -32 2 -4 -9 -2 -18 3
-21 6 -4 10 -1 10 6 0 7 3 10 6 6 3 -3 3 -10 0 -16 -9 -15 -38 -1 -32 15 3 7
1 16 -4 19 -6 4 -10 1 -10 -5 0 -6 -4 -9 -9 -6 -5 3 -12 -1 -15 -10 -4 -11 -2
-15 8 -11 15 6 15 -2 2 -41 -7 -21 -9 -21 -29 -7 -27 19 -49 19 -24 1 16 -12
16 -14 2 -20 -9 -3 -13 -2 -10 3 3 5 0 13 -6 17 -8 5 -10 -1 -7 -19 4 -19 1
-24 -10 -20 -11 5 -12 2 -4 -14 7 -12 7 -24 1 -34 -8 -12 -10 -12 -8 1 3 29
-1 41 -11 35 -6 -4 -8 -11 -5 -16 3 -5 -2 -6 -12 -3 -16 5 -16 4 1 -10 11 -9
15 -16 9 -16 -7 0 -15 5 -18 11 -9 14 -44 -22 -37 -38 2 -7 -1 -13 -8 -13 -6
0 -9 4 -6 9 3 5 -1 14 -8 20 -10 8 -16 9 -21 1 -3 -5 -1 -10 5 -10 6 0 9 -4 5
-9 -3 -5 0 -13 6 -16 7 -5 0 -14 -18 -26 -15 -10 -29 -23 -29 -29 -1 -5 -2
-14 -3 -20 0 -5 -6 -10 -12 -10 -8 0 -7 6 2 17 12 14 12 16 -1 11 -8 -3 -15
-14 -15 -26 0 -11 -4 -23 -8 -26 -4 -4 -5 -3 -3 0 2 3 1 17 -3 31 -7 27 -41
41 -41 17 0 -8 6 -11 18 -7 16 5 16 5 -1 -8 -10 -8 -19 -25 -20 -37 -1 -23
-37 -65 -37 -44 0 5 -9 8 -20 5 -10 -3 -18 -8 -18 -12 1 -3 -3 -16 -10 -27 -6
-12 -9 -24 -5 -27 9 -10 -27 -58 -38 -52 -5 4 -7 10 -4 15 3 4 -3 14 -12 21
-15 12 -16 12 -10 -6 7 -19 6 -19 -7 -2 -8 11 -17 14 -20 8 -4 -5 -2 -12 4
-16 15 -9 12 -32 -6 -39 -8 -3 -12 -2 -9 4 6 10 -15 15 -44 10 -13 -1 -13 1
-1 15 9 11 15 13 20 5 8 -13 25 16 22 36 -1 6 5 11 13 11 8 0 15 -5 15 -11 0
-5 7 -1 15 10 8 10 15 15 14 9 -3 -23 2 -36 11 -30 7 4 6 13 -1 27 -8 14 -8
18 0 14 7 -5 9 -1 5 11 -5 15 -4 16 6 3 10 -13 11 -13 7 0 -2 8 -9 15 -16 15
-6 0 -16 7 -21 15 -7 10 -10 11 -10 3 0 -23 2 -28 11 -25 12 3 12 -15 0 -23
-12 -7 -53 50 -43 60 4 5 1 5 -5 1 -10 -5 -9 -12 2 -30 14 -21 14 -25 -2 -37
-15 -13 -16 -12 -11 9 4 12 2 22 -3 22 -5 0 -10 -10 -11 -22 0 -13 -1 -30 -2
-38 -1 -8 -6 -14 -11 -12 -6 2 -9 9 -7 17 4 22 -14 26 -29 7 -13 -15 -12 -16
4 -3 20 16 24 -1 4 -17 -10 -9 -20 -7 -38 4 l-24 16 24 -21 c21 -19 20 -26 -2
-22 -4 0 -6 -5 -5 -11 2 -7 -3 -12 -10 -10 -6 1 -11 -1 -11 -5 4 -22 -3 -25
-17 -7 -15 18 -15 18 -5 -2 14 -29 -7 -51 -25 -27 -10 15 -11 12 -8 -17 3 -25
1 -31 -6 -20 -7 11 -9 9 -7 -11 1 -14 10 -34 20 -43 17 -18 18 -17 11 8 -3 15
-2 26 2 25 25 -4 45 2 38 13 -5 7 -3 8 6 3 9 -6 11 -4 6 4 -6 9 -12 9 -25 -3
-10 -9 -21 -13 -24 -9 -11 11 -8 23 6 21 6 -2 11 2 10 8 -1 6 9 22 22 34 25
24 36 12 12 -12 -11 -11 -10 -17 10 -38 13 -13 23 -20 23 -14 0 6 -3 14 -7 18
-4 3 -8 17 -9 29 -2 12 0 16 3 9 4 -10 11 -5 24 15 20 30 27 25 7 -6 -9 -15
-9 -23 2 -35 7 -9 15 -14 18 -11 3 2 0 10 -6 17 -7 9 -6 19 5 33 13 17 15 17
10 2 -4 -11 -1 -20 8 -23 13 -5 13 -8 0 -21 -9 -8 -13 -18 -11 -22 3 -4 -1 -8
-9 -8 -8 0 -13 3 -10 5 7 7 -15 32 -27 32 -6 0 -5 -7 2 -15 10 -11 10 -18 1
-29 -8 -10 -9 -16 -1 -19 6 -3 5 -4 -2 -3 -7 2 -14 8 -14 14 -3 22 -4 23 -14
17 -7 -4 -6 -13 1 -27 8 -15 8 -19 0 -14 -6 4 -11 2 -11 -3 0 -6 5 -11 12 -11
6 0 3 -7 -8 -15 -11 -8 -14 -15 -6 -15 6 0 12 -4 12 -9 0 -5 -11 -4 -24 2 -23
11 -24 12 -5 19 27 10 24 19 -6 14 -13 -3 -27 0 -30 5 -11 17 -26 9 -20 -11 4
-13 2 -20 -7 -20 -10 0 -11 -2 0 -8 7 -5 10 -16 6 -26 -6 -16 -8 -16 -15 -3
-5 9 16 227 51 537 52 455 63 528 82 559 107 178 416 646 528 801 164 226 236
316 316 398 81 83 104 97 104 65z m3055 -143 c10 -11 16 -20 13 -20 -3 0 -13
9 -23 20 -10 11 -16 20 -13 20 3 0 13 -9 23 -20z m-1785 -33 c0 -2 -12 -14
-27 -28 l-28 -24 24 28 c23 25 31 32 31 24z m-80 -71 c0 -2 -8 -10 -17 -17
-16 -13 -17 -12 -4 4 13 16 21 21 21 13z m-1421 -1335 l-2 -26 -4 25 c-3 14
-10 32 -16 40 -11 13 -10 13 6 1 9 -7 16 -25 16 -40z m-48 -137 c-11 -15 -21
-24 -21 -20 0 10 34 55 39 51 2 -2 -6 -16 -18 -31z m-40 3 c-10 -9 -11 -8 -5
6 3 10 9 15 12 12 3 -3 0 -11 -7 -18z m-51 -40 c0 -2 -10 -12 -22 -23 l-23
-19 19 23 c18 21 26 27 26 19z m-10 -51 c0 -2 -7 -7 -16 -10 -8 -3 -12 -2 -9
4 6 10 25 14 25 6z m-85 -34 c-3 -3 -11 0 -18 7 -9 10 -8 11 6 5 10 -3 15 -9
12 -12z m-25 -42 c8 -5 11 -10 5 -10 -5 0 -17 5 -25 10 -8 5 -10 10 -5 10 6 0
17 -5 25 -10z m-23 -16 c-3 -3 -12 -4 -19 -1 -8 3 -5 6 6 6 11 1 17 -2 13 -5z
m-131 -74 c0 -12 -4 -16 -9 -11 -5 5 -6 14 -3 20 10 15 12 14 12 -9z m-65 -77
c12 -14 12 -16 0 -8 -9 5 -19 2 -28 -10 -16 -24 -17 -12 -1 15 15 24 13 24 29
3z m30 -6 c-10 -9 -11 -8 -5 6 3 10 9 15 12 12 3 -3 0 -11 -7 -18z m-157 -5
c3 -5 -1 -9 -9 -9 -8 0 -12 4 -9 9 3 4 7 8 9 8 2 0 6 -4 9 -8z m-41 -27 c4 -8
3 -16 -1 -19 -4 -3 -9 4 -9 15 -2 23 3 25 10 4z m-55 -56 c-15 -20 -24 -25
-29 -17 -9 14 29 60 42 52 5 -3 -1 -18 -13 -35z m117 2 c3 -5 2 -12 -3 -15 -5
-3 -9 1 -9 9 0 17 3 19 12 6z m-68 -33 c-3 -8 -6 -5 -6 6 -1 11 2 17 5 13 3
-3 4 -12 1 -19z m58 -8 c10 -11 16 -20 13 -20 -3 0 -13 9 -23 20 -10 11 -16
20 -13 20 3 0 13 -9 23 -20z m-38 -12 c-3 -8 -6 -5 -6 6 -1 11 2 17 5 13 3 -3
4 -12 1 -19z m-184 -53 c-3 -9 -8 -14 -10 -11 -3 3 -2 9 2 15 9 16 15 13 8 -4z
m147 -29 c0 -2 -8 -10 -17 -17 -16 -13 -17 -12 -4 4 13 16 21 21 21 13z m-136
-52 c3 -8 2 -12 -4 -9 -6 3 -10 10 -10 16 0 14 7 11 14 -7z m17 -27 c-10 -9
-11 -8 -5 6 3 10 9 15 12 12 3 -3 0 -11 -7 -18z m-46 -36 c3 -5 2 -12 -3 -15
-5 -3 -9 1 -9 9 0 17 3 19 12 6z m15 -24 c0 -2 -10 -12 -22 -23 l-23 -19 19
23 c18 21 26 27 26 19z m-45 -81 c0 -15 -4 -21 -9 -16 -5 5 -6 16 -3 24 9 22
12 20 12 -8z m-418 -481 c0 -8 -4 -12 -9 -9 -5 3 -6 10 -3 15 9 13 12 11 12
-6z m-54 -58 c4 3 7 4 7 1 0 -3 -8 -12 -17 -19 -10 -8 -14 -9 -10 -2 4 6 3 14
-3 18 -5 3 -10 1 -10 -6 0 -7 -3 -10 -6 -6 -12 12 7 28 20 18 7 -6 16 -8 19
-4z m34 -12 c0 -8 -4 -12 -9 -9 -5 3 -6 10 -3 15 9 13 12 11 12 -6z m-194
-280 c-3 -9 -8 -14 -10 -11 -3 3 -2 9 2 15 9 16 15 13 8 -4z m-7349 -120 c-4
-8 -10 -15 -15 -15 -5 0 -9 -6 -9 -14 0 -8 -9 -21 -20 -29 -11 -8 -17 -18 -12
-23 4 -4 -1 -2 -10 5 -14 10 -15 18 -7 32 12 23 24 26 15 4 -8 -21 1 -19 14 4
10 20 -2 24 -28 7 -7 -4 -28 -10 -45 -13 -18 -3 -40 -9 -49 -14 -10 -5 -18 -6
-18 -1 0 11 70 33 82 26 4 -3 8 -1 8 5 0 5 19 16 43 24 54 20 57 20 51 2z
m7130 -40 c-2 -14 0 -25 7 -25 6 0 4 -7 -5 -15 -8 -9 -12 -23 -9 -32 5 -12 8
-13 11 -4 3 8 8 7 18 -6 14 -17 14 -17 12 2 -2 11 -10 23 -18 27 -13 6 -13 7
0 7 8 0 22 -4 30 -9 9 -6 11 -10 3 -10 -7 0 -10 -6 -7 -14 3 -8 0 -17 -5 -21
-6 -3 -9 -10 -6 -15 3 -4 -5 -6 -17 -2 -20 5 -21 6 -3 12 19 7 11 17 -12 16
-17 -1 -18 -11 -3 -46 13 -32 1 -60 -25 -60 -8 0 -16 -8 -18 -17 -4 -16 -5
-16 -6 0 -1 11 7 21 19 24 11 3 17 10 14 15 -3 5 -13 7 -21 4 -8 -3 -11 -2 -8
3 3 5 1 12 -4 15 -10 7 -9 25 2 43 4 7 5 24 3 38 -3 14 -1 23 5 20 5 -4 9 -1
9 4 0 6 -4 11 -10 11 -5 0 -10 5 -10 11 0 8 4 8 14 0 10 -9 16 -9 21 -1 4 6 4
14 1 17 -5 5 11 33 20 33 1 0 1 -11 -2 -25z m-7209 -43 c14 -17 16 -23 5 -20
-10 2 -14 -4 -13 -17 1 -19 1 -19 -11 -3 -7 10 -15 15 -18 12 -4 -3 -9 0 -14
7 -4 8 -3 10 4 5 7 -4 12 -2 12 3 0 6 -8 11 -17 12 -13 0 -14 2 -4 6 8 3 20
-2 27 -11 7 -10 15 -13 18 -7 4 5 2 12 -4 16 -5 3 -10 11 -10 17 0 6 1 9 3 7
1 -2 11 -14 22 -27z m7275 14 c0 -3 -4 -8 -10 -11 -5 -3 -10 -1 -10 4 0 6 5
11 10 11 6 0 10 -2 10 -4z m-7322 -71 c-3 -3 -9 2 -12 12 -6 14 -5 15 5 6 7
-7 10 -15 7 -18z m-37 -38 l-24 -22 19 27 c10 14 21 24 23 22 3 -3 -6 -15 -18
-27z m7218 -63 c4 3 8 -1 8 -9 0 -8 -4 -12 -8 -9 -4 2 -10 -8 -12 -23 -2 -16
-4 -8 -4 17 0 24 2 39 5 32 2 -7 7 -10 11 -8z m41 -44 c0 -5 -2 -10 -4 -10 -3
0 -8 5 -11 10 -3 6 -1 10 4 10 6 0 11 -4 11 -10z m-9 -43 c-10 -9 -11 -8 -5 6
3 10 9 15 12 12 3 -3 0 -11 -7 -18z m-49 -17 c3 -17 2 -33 -2 -35 -3 -2 -7 12
-8 31 -3 42 4 45 10 4z m23 21 c3 -5 2 -12 -3 -15 -5 -3 -9 1 -9 9 0 17 3 19
12 6z m50 -21 c-3 -5 -12 -10 -18 -10 -7 0 -6 4 3 10 19 12 23 12 15 0z
m-15277 -44 c1 -2 -21 -40 -50 -85 l-52 -81 -78 0 -79 0 62 91 61 92 66 -7
c37 -4 68 -8 70 -10z m-904 -4 c3 -5 -1 -9 -9 -9 -8 0 -12 4 -9 9 3 4 7 8 9 8
2 0 6 -4 9 -8z m16136 4 c0 -2 -7 -7 -16 -10 -8 -3 -12 -2 -9 4 6 10 25 14 25
6z m-15663 -121 c0 -8 -4 -12 -9 -9 -5 3 -6 10 -3 15 9 13 12 11 12 -6z
m10851 -4 c46 -23 67 -46 87 -94 51 -122 -36 -250 -170 -250 -86 0 -153 52
-176 135 -40 149 122 279 259 209z m-4346 -110 c125 -40 212 -120 243 -223 21
-73 19 -208 -5 -304 -115 -456 -706 -1016 -1269 -1204 -158 -53 -278 -73 -441
-73 -348 -1 -500 119 -500 393 0 258 169 556 492 865 319 306 683 502 1043
561 120 20 352 12 437 -15z m-1678 4 c48 -9 113 -24 143 -35 67 -24 166 -74
169 -86 2 -5 -92 -85 -207 -177 l-210 -168 -36 32 c-108 94 -267 103 -424 24
-59 -30 -129 -108 -129 -144 0 -58 30 -80 187 -134 136 -48 192 -78 236 -126
91 -101 64 -229 -95 -438 -214 -283 -514 -462 -883 -525 -97 -16 -146 -19
-260 -15 -151 6 -224 21 -320 66 -65 30 -168 107 -163 121 2 5 102 88 223 185
246 196 214 184 278 102 17 -22 56 -50 93 -68 156 -77 373 -34 492 96 57 62
70 100 49 142 -20 38 -71 65 -228 119 -197 67 -244 109 -243 215 1 111 101
278 263 439 192 191 450 329 697 374 106 19 262 19 368 1z m-4133 -44 c218
-56 264 -248 118 -493 -81 -137 -221 -295 -350 -394 l-57 -44 -24 33 c-14 17
-62 83 -106 145 l-81 113 43 53 c54 67 83 137 70 173 -5 14 -22 35 -37 47 -26
19 -42 21 -162 21 -73 0 -129 3 -124 6 5 3 -10 40 -34 82 -24 42 -52 102 -62
133 -17 56 -17 57 4 101 l21 45 368 -5 c238 -3 383 -8 413 -16z m1473 -166
l-125 -185 -294 0 -295 0 -100 -150 -100 -150 275 0 c151 0 275 -3 275 -6 0
-3 -54 -86 -121 -185 l-121 -179 -279 0 -279 0 -100 -150 c-55 -82 -100 -152
-100 -155 0 -2 130 -6 289 -7 l290 -3 -122 -182 -122 -182 -537 -1 c-296 0
-538 2 -538 5 0 3 95 148 211 322 204 305 212 316 228 296 9 -11 110 -140 225
-287 115 -147 211 -264 214 -262 4 5 -226 307 -381 501 l-64 80 356 532 356
532 541 1 542 0 -124 -185z m1130 175 c167 -25 246 -99 246 -235 0 -128 -94
-299 -250 -456 -142 -143 -315 -244 -498 -292 -51 -13 -94 -26 -96 -28 -3 -3
22 -157 54 -344 33 -187 60 -343 60 -347 0 -5 -137 -8 -303 -8 l-304 0 -6 118
c-4 64 -10 205 -13 312 -4 107 -10 200 -13 207 -4 7 -98 -124 -224 -312 l-218
-325 -245 0 c-193 0 -244 3 -238 13 4 6 264 393 577 860 l568 847 417 0 c229
0 448 -5 486 -10z m4441 -12 c3 -13 48 -248 101 -523 52 -274 97 -501 99 -503
3 -4 153 215 501 735 l209 313 243 0 c152 0 242 -4 240 -10 -1 -5 -259 -392
-573 -859 l-570 -850 -250 -1 -250 0 -69 363 c-38 199 -82 433 -99 520 -16 86
-33 157 -36 157 -4 0 -164 -234 -356 -520 l-349 -520 -244 0 c-141 0 -242 4
-240 9 2 5 260 392 573 860 l570 850 247 0 248 1 5 -22z m2461 -838 l-220
-860 -263 0 c-145 0 -263 1 -263 3 0 1 18 66 39 144 21 79 36 145 33 148 -3 3
-156 5 -341 5 l-336 -1 -165 -149 -165 -149 -260 0 -260 0 60 54 c33 29 456
416 940 859 l880 805 271 0 270 1 -220 -860z m2662 798 c-14 -18 -66 -90 -118
-160 l-93 -128 -449 0 -450 0 -89 -82 c-49 -46 -89 -85 -89 -88 0 -3 93 -5
208 -6 161 0 222 -4 276 -17 336 -84 353 -368 40 -667 -276 -263 -584 -411
-995 -477 -145 -23 -435 -23 -544 1 -161 35 -271 109 -296 199 -16 60 -6 155
23 219 l25 55 249 11 c137 7 282 15 321 18 l73 6 -15 -36 c-22 -51 -19 -117 5
-144 21 -22 77 -42 120 -42 120 0 352 118 469 239 173 180 140 320 -75 321
-76 0 -151 -20 -258 -70 l-61 -28 -300 -6 -300 -6 465 460 465 460 709 0 708
0 -24 -32z m-13118 -164 c14 -9 62 -53 107 -97 l81 -80 -129 -193 -129 -194
134 0 c155 0 231 18 315 75 l51 34 111 -136 112 -136 -24 -18 c-39 -30 -179
-96 -260 -123 -125 -42 -242 -56 -474 -56 l-210 -1 -189 -284 -189 -285 -244
0 c-133 0 -243 3 -242 8 0 4 215 327 478 717 l477 710 73 38 c81 41 114 45
151 21z m-253 -39 c0 -8 -4 -12 -9 -9 -5 3 -6 10 -3 15 9 13 12 11 12 -6z
m-57 -55 c0 -5 -5 -10 -11 -10 -5 0 -7 5 -4 10 3 6 8 10 11 10 2 0 4 -4 4 -10z
m15757 -492 c-3 -8 -6 -5 -6 6 -1 11 2 17 5 13 3 -3 4 -12 1 -19z m-86 -511
c-6 -8 -9 -17 -6 -21 3 -3 -1 -1 -7 4 -10 9 -10 13 2 20 21 13 24 12 11 -3z
m16 -104 c0 -9 -4 -10 -14 -2 -7 6 -13 12 -13 14 0 1 6 2 13 2 8 0 14 -6 14
-14z m-37 -127 c0 -2 -7 -7 -16 -10 -8 -3 -12 -2 -9 4 6 10 25 14 25 6z m4
-24 c3 -5 -1 -9 -9 -9 -8 0 -12 4 -9 9 3 4 7 8 9 8 2 0 6 -4 9 -8z m11 -31 c3
-5 2 -12 -3 -15 -5 -3 -9 1 -9 9 0 17 3 19 12 6z m-38 -53 c-3 -8 -6 -5 -6 6
-1 11 2 17 5 13 3 -3 4 -12 1 -19z m3 -22 c0 -3 -4 -8 -10 -11 -5 -3 -10 -1
-10 4 0 6 5 11 10 11 6 0 10 -2 10 -4z m25 -94 c-3 -3 -11 0 -18 7 -9 10 -8
11 6 5 10 -3 15 -9 12 -12z m-1710 -251 c236 -48 381 -183 420 -387 47 -243
-33 -519 -243 -839 -190 -291 -414 -525 -719 -754 -496 -372 -965 -553 -1438
-554 -311 -1 -501 66 -610 214 -61 83 -86 161 -92 295 -12 231 73 472 265 760
107 160 210 280 388 455 495 484 1049 772 1596 829 116 12 326 3 433 -19z
m4179 -78 c-4 -16 -26 -99 -48 -185 l-42 -157 -61 184 -61 185 109 0 109 0 -6
-27z"/>
<path d="M21774 24866 c1 -8 5 -18 8 -22 4 -3 5 1 4 10 -1 8 -5 18 -8 22 -4 3
-5 -1 -4 -10z"/>
<path d="M20055 24782 c-11 -12 -4 -24 11 -18 12 5 14 1 9 -17 -4 -15 -3 -18
3 -8 6 8 12 9 16 3 3 -6 2 -13 -4 -17 -5 -3 -10 -11 -10 -18 0 -6 6 -2 14 8
12 16 12 22 0 40 -8 12 -12 24 -9 27 3 2 -2 5 -10 5 -8 0 -17 -3 -20 -5z"/>
<path d="M20129 24777 c6 -8 7 -18 3 -22 -4 -5 -1 -5 6 -1 10 6 10 11 1 22 -6
8 -14 14 -16 14 -3 0 0 -6 6 -13z"/>
<path d="M20100 24771 c0 -6 4 -13 10 -16 6 -3 7 1 4 9 -7 18 -14 21 -14 7z"/>
<path d="M20133 24615 c0 -8 4 -12 9 -9 5 3 6 10 3 15 -9 13 -12 11 -12 -6z"/>
<path d="M20161 24606 c-9 -10 -7 -17 6 -27 16 -12 17 -12 6 2 -10 12 -10 18
-1 27 7 7 9 12 6 12 -3 0 -11 -6 -17 -14z"/>
<path d="M20130 24576 c0 -2 8 -10 18 -17 15 -13 16 -12 3 4 -13 16 -21 21
-21 13z"/>
<path d="M20179 24463 c-13 -16 -12 -17 4 -4 16 13 21 21 13 21 -2 0 -10 -8
-17 -17z"/>
<path d="M20184 24439 c-3 -6 -2 -15 3 -20 5 -5 9 -1 9 11 0 23 -2 24 -12 9z"/>
<path d="M22023 24339 c-2 -23 3 -25 10 -4 4 8 3 16 -1 19 -4 3 -9 -4 -9 -15z"/>
<path d="M20136 24231 c-3 -5 1 -11 9 -15 8 -3 15 -1 15 4 0 13 -18 22 -24 11z"/>
<path d="M20258 24188 c9 -9 9 -15 -1 -27 -11 -14 -10 -14 6 -2 13 10 15 17 6
27 -6 8 -14 14 -17 14 -3 0 -1 -5 6 -12z"/>
<path d="M20135 24170 c-3 -5 -2 -10 4 -10 5 0 13 5 16 10 3 6 2 10 -4 10 -5
0 -13 -4 -16 -10z"/>
<path d="M20242 24080 c-18 -29 -15 -38 4 -12 9 13 14 25 12 27 -2 2 -9 -5
-16 -15z"/>
<path d="M20256 24062 c-3 -5 4 -18 17 -28 21 -19 21 -19 7 0 -8 11 -13 21
-12 23 2 3 1 7 -1 9 -3 3 -8 1 -11 -4z"/>
<path d="M20272 23998 c-7 -7 -12 -17 -12 -22 0 -6 5 -3 11 7 6 9 15 14 21 11
7 -4 8 -2 4 4 -9 15 -9 15 -24 0z"/>
<path d="M20293 23959 c-2 -23 3 -25 10 -4 4 8 3 16 -1 19 -4 3 -9 -4 -9 -15z"/>
<path d="M23335 23921 c-3 -5 -2 -12 3 -15 5 -3 9 1 9 9 0 17 -3 19 -12 6z"/>
<path d="M23269 23903 c-8 -11 -18 -21 -24 -21 -5 0 -11 -6 -13 -14 -3 -10 -2
-10 6 1 7 9 11 10 17 2 5 -9 11 -9 23 1 14 11 15 10 9 -7 -7 -20 -7 -20 8 -1
8 11 21 24 27 29 10 6 9 7 -2 4 -8 -2 -20 3 -26 11 -9 13 -13 12 -25 -5z m25
-10 c4 -10 4 -14 0 -10 -4 4 -14 1 -22 -6 -13 -10 -14 -9 -3 11 14 27 17 27
25 5z"/>
<path d="M23066 23824 c-6 -16 2 -18 22 -5 11 7 11 9 -1 14 -9 3 -18 -1 -21
-9z"/>
<path d="M20347 23663 c-14 -14 -17 -15 -18 -3 0 8 -9 -3 -20 -25 -10 -22 -19
-32 -19 -22 0 9 -4 17 -10 17 -5 0 -10 -2 -10 -5 0 -8 24 -48 38 -63 7 -7 10
-18 6 -23 -3 -5 0 -8 8 -7 7 2 12 -2 11 -8 -1 -6 4 -11 11 -11 7 0 13 6 13 13
0 7 -5 12 -11 11 -6 -1 -10 4 -8 11 1 8 -2 11 -9 6 -9 -5 -10 -2 -6 9 4 10 2
16 -5 14 -6 -1 -12 3 -15 10 -4 12 14 12 34 0 8 -5 7 2 -2 20 -17 32 -19 47
-6 39 4 -3 16 3 26 14 22 24 16 27 -8 3z m-30 -55 c-3 -8 -6 -5 -6 6 -1 11 2
17 5 13 3 -3 4 -12 1 -19z"/>
<path d="M20263 23568 c-8 -13 -9 -18 -12 -39 0 -5 -6 -7 -11 -4 -12 8 -8 -28
6 -47 12 -15 12 -57 1 -75 -5 -8 -3 -13 7 -13 19 0 20 -11 4 -29 -7 -7 -8 -11
-3 -10 6 1 18 -1 28 -6 14 -6 15 -10 5 -22 -18 -22 -20 -80 -3 -80 7 0 12 8
10 19 -2 10 3 22 12 26 11 7 12 11 4 16 -6 4 -11 12 -11 19 0 23 30 -19 32
-45 1 -15 7 -26 13 -25 5 1 9 -5 7 -13 -2 -8 0 -11 4 -7 13 12 13 37 1 34 -7
-1 -12 13 -12 35 -1 20 -4 41 -9 45 -5 4 -5 -3 -1 -17 l7 -25 -19 20 c-31 32
-54 71 -46 78 10 11 25 8 18 -3 -3 -5 1 -20 9 -32 9 -12 16 -17 16 -10 0 8 5
10 13 6 6 -4 9 -3 4 1 -4 5 3 20 15 34 13 14 15 19 6 12 -17 -12 -23 -8 -19
12 1 5 -3 6 -9 2 -5 -3 -10 1 -10 9 0 9 0 19 0 24 0 4 4 7 9 7 5 0 13 3 17 7
3 4 -3 6 -14 3 -12 -2 -24 0 -27 6 -4 5 -1 9 4 9 6 0 11 7 11 15 0 8 -4 15
-10 15 -5 0 -10 7 -10 16 0 24 -27 47 -37 32z m30 -37 c11 -22 12 -32 3 -41
-8 -8 -7 -13 4 -20 13 -8 12 -10 -4 -10 -13 0 -17 -5 -13 -20 3 -12 0 -20 -7
-20 -6 0 -12 9 -12 20 0 11 4 20 8 20 4 0 8 5 8 10 0 6 -6 9 -12 8 -7 -2 -14
8 -16 21 -3 17 0 21 9 15 9 -5 10 -2 6 10 -4 10 -3 15 3 11 6 -3 10 -2 10 4 0
5 -6 12 -12 14 -9 4 -9 6 -1 6 6 1 18 -12 26 -28z m35 -148 c-13 -16 -27 -8
-26 15 0 9 -3 26 -7 37 -5 13 1 10 18 -10 18 -21 22 -34 15 -42z m-28 -83 c0
-5 -2 -10 -4 -10 -3 0 -8 5 -11 10 -3 6 -1 10 4 10 6 0 11 -4 11 -10z"/>
<path d="M20270 23505 c-7 -9 -10 -18 -6 -22 3 -3 6 -1 6 6 0 7 5 9 10 6 6 -3
10 1 10 9 0 20 -4 20 -20 1z"/>
<path d="M20365 23321 c-3 -5 -2 -12 3 -15 5 -3 9 1 9 9 0 17 -3 19 -12 6z"/>
<path d="M20066 24582 c-2 -4 7 -13 21 -19 25 -12 25 -12 8 7 -20 22 -22 23
-29 12z"/>
<path d="M20066 24549 c6 -8 10 -22 8 -33 -2 -13 1 -15 8 -8 14 14 6 44 -12
50 -12 4 -13 2 -4 -9z"/>
<path d="M20124 24456 c-3 -8 -15 -13 -26 -11 l-21 4 21 -19 c26 -24 33 -25
25 -3 -4 9 -2 14 3 10 5 -3 10 3 10 14 0 23 -5 24 -12 5z"/>
<path d="M20185 24030 c-4 -6 -11 -7 -17 -4 -7 4 -8 2 -4 -4 7 -12 36 -5 36 9
0 12 -7 11 -15 -1z"/>
<path d="M20220 23957 c0 -8 7 -14 15 -14 11 0 12 4 4 14 -6 7 -13 13 -15 13
-2 0 -4 -6 -4 -13z"/>
<path d="M20313 22195 c0 -8 4 -12 9 -9 5 3 6 10 3 15 -9 13 -12 11 -12 -6z"/>
<path d="M20275 22159 c-4 -6 -5 -12 -2 -15 2 -3 7 2 10 11 7 17 1 20 -8 4z"/>
<path d="M20252 22135 c4 -4 3 -18 -3 -32 -5 -15 -5 -22 0 -18 6 3 14 -3 20
-12 6 -10 11 -13 11 -6 0 6 -4 15 -10 18 -13 8 -13 35 1 35 5 0 7 -5 3 -12 -4
-7 -3 -8 4 -4 17 10 15 14 -10 27 -13 6 -20 8 -16 4z"/>
<path d="M20210 22071 c-13 -24 -13 -34 -1 -26 6 3 14 -2 19 -10 7 -13 10 -12
20 9 10 22 9 24 -9 21 -15 -3 -19 0 -15 10 8 22 -2 18 -14 -4z"/>
<path d="M24844 18728 l-19 -23 23 19 c21 18 27 26 19 26 -2 0 -12 -10 -23
-22z"/>
<path d="M24799 18693 c-13 -16 -12 -17 4 -4 16 13 21 21 13 21 -2 0 -10 -8
-17 -17z"/>
<path d="M24745 18654 l-30 -26 33 22 c17 12 32 23 32 26 0 7 -4 5 -35 -22z"/>
<path d="M25192 18649 c-22 -27 -13 -33 22 -13 13 8 16 16 10 26 -7 12 -13 10
-32 -13z m28 7 c0 -2 -8 -10 -17 -17 -16 -13 -17 -12 -4 4 13 16 21 21 21 13z"/>
<path d="M24624 18574 c-18 -14 -18 -15 4 -4 12 6 22 13 22 15 0 8 -5 6 -26
-11z"/>
<path d="M24544 18524 c-18 -14 -18 -15 4 -4 12 6 22 13 22 15 0 8 -5 6 -26
-11z"/>
<path d="M24448 18474 c-27 -13 -48 -27 -48 -29 0 -3 23 6 50 20 28 14 50 28
50 30 0 7 1 7 -52 -21z"/>
<path d="M24320 18410 c-19 -11 -30 -19 -25 -19 6 0 26 8 45 19 19 11 31 19
25 19 -5 0 -26 -8 -45 -19z"/>
<path d="M24210 18360 c-8 -5 -10 -10 -5 -10 6 0 17 5 25 10 8 5 11 10 5 10
-5 0 -17 -5 -25 -10z"/>
<path d="M24160 18340 c-8 -5 -10 -10 -5 -10 6 0 17 5 25 10 8 5 11 10 5 10
-5 0 -17 -5 -25 -10z"/>
<path d="M24110 18320 c-8 -5 -10 -10 -5 -10 6 0 17 5 25 10 8 5 11 10 5 10
-5 0 -17 -5 -25 -10z"/>
<path d="M25266 18192 c-3 -5 1 -15 8 -21 11 -10 14 -9 12 3 -3 21 -13 29 -20
18z"/>
<path d="M25207 18158 c4 -19 3 -20 -6 -8 -7 9 -11 10 -11 3 0 -6 5 -15 10
-18 7 -4 8 -11 1 -18 -5 -7 -10 -15 -10 -19 -1 -5 -3 -8 -6 -8 -3 0 -7 0 -10
0 -3 0 -1 8 4 18 6 11 6 24 1 32 -7 12 -9 11 -10 -5 0 -11 -1 -41 -2 -67 -1
-36 -5 -45 -14 -37 -7 6 -11 20 -9 31 3 11 1 18 -2 14 -11 -11 -12 -35 -2 -42
6 -3 5 -11 -2 -20 -6 -7 -16 -11 -23 -7 -7 4 -6 1 1 -9 7 -8 10 -19 6 -24 -4
-5 -1 -3 7 4 8 7 16 17 16 23 1 5 2 12 3 16 0 4 8 -2 16 -13 15 -18 15 -18 8
0 -4 13 -3 17 5 12 8 -5 10 -1 5 11 -6 15 -4 16 9 5 18 -14 34 0 22 19 -5 8
-9 8 -14 -1 -5 -9 -9 -8 -13 3 -4 10 2 13 21 12 20 -1 26 -6 24 -19 -2 -11 1
-15 7 -11 11 6 10 32 -2 52 -4 6 -3 14 3 18 5 3 10 13 10 21 0 8 -5 12 -10 9
-6 -3 -14 5 -20 19 -12 32 -20 34 -13 4z m23 -53 c-6 -7 -6 -15 0 -21 7 -7 1
-10 -15 -10 -19 0 -22 3 -13 13 6 7 7 13 3 13 -4 0 -2 6 4 13 6 8 7 18 3 23
-4 4 1 2 11 -5 12 -9 14 -17 7 -26z"/>
<path d="M25089 18037 c6 -8 7 -18 3 -22 -4 -5 -1 -5 6 -1 10 6 10 11 1 22 -6
8 -14 14 -16 14 -3 0 0 -6 6 -13z"/>
<path d="M25094 17986 c1 -8 5 -18 8 -22 4 -3 5 1 4 10 -1 8 -5 18 -8 22 -4 3
-5 -1 -4 -10z"/>
<path d="M25040 17976 c0 -2 8 -10 18 -17 15 -13 16 -12 3 4 -13 16 -21 21
-21 13z"/>
<path d="M23828 18223 c7 -3 16 -2 19 1 4 3 -2 6 -13 5 -11 0 -14 -3 -6 -6z"/>
<path d="M23788 18213 c7 -3 16 -2 19 1 4 3 -2 6 -13 5 -11 0 -14 -3 -6 -6z"/>
<path d="M23710 18191 c0 -6 4 -12 9 -16 6 -3 8 -14 6 -25 -2 -11 0 -22 4 -24
10 -7 8 35 -3 53 -7 11 -5 13 8 8 10 -4 15 -3 11 3 -8 13 -35 13 -35 1z"/>
<path d="M23636 18143 c-6 -14 -5 -15 5 -6 7 7 10 15 7 18 -3 3 -9 -2 -12 -12z"/>
<path d="M23789 18015 c-1 -3 -2 -8 -3 -12 -1 -5 -5 -13 -9 -20 -4 -6 -3 -15
3 -18 6 -4 10 -3 9 2 -1 4 0 10 1 13 5 13 8 40 4 40 -2 0 -5 -2 -5 -5z"/>
<path d="M24256 17651 c-3 -5 2 -15 12 -22 15 -12 16 -12 5 2 -7 9 -10 19 -6
22 3 4 4 7 0 7 -3 0 -8 -4 -11 -9z"/>
<path d="M24179 17648 c-4 -13 -10 -72 -6 -68 7 7 17 70 11 70 -2 0 -4 -1 -5
-2z"/>
<path d="M24225 17640 c-4 -6 -11 -8 -16 -4 -5 3 -9 2 -8 -3 1 -4 -1 -16 -6
-26 -4 -10 -5 -21 -1 -24 3 -4 6 1 6 11 0 11 5 15 13 10 6 -4 9 -3 4 1 -4 5 0
17 10 27 9 10 13 18 10 18 -3 0 -9 -5 -12 -10z"/>
<path d="M24234 17618 c-4 -7 -4 -10 1 -6 4 4 15 2 24 -5 14 -11 14 -10 2 6
-16 20 -18 21 -27 5z"/>
<path d="M18910 19395 c-7 -9 -10 -18 -7 -21 3 -3 10 4 17 15 13 25 8 27 -10
6z"/>
<path d="M19019 19363 c-13 -16 -12 -17 4 -4 9 7 17 15 17 17 0 8 -8 3 -21
-13z"/>
<path d="M18870 19196 c0 -2 8 -10 18 -17 15 -13 16 -12 3 4 -13 16 -21 21
-21 13z"/>
<path d="M18859 19133 c-13 -16 -12 -17 4 -4 16 13 21 21 13 21 -2 0 -10 -8
-17 -17z"/>
<path d="M18779 19127 c6 -8 7 -18 3 -22 -4 -5 -1 -5 6 -1 10 6 10 11 1 22 -6
8 -14 14 -16 14 -3 0 0 -6 6 -13z"/>
<path d="M18691 19106 c-12 -14 -52 -13 -74 1 -5 3 -7 0 -5 -8 3 -8 11 -13 17
-11 7 1 10 -2 6 -8 -8 -13 8 -13 21 0 6 6 10 1 12 -16 1 -15 -2 -23 -8 -19 -6
4 -7 11 -4 17 4 6 -2 6 -15 -1 -11 -7 -22 -9 -22 -6 -1 3 -2 11 -3 18 -1 6 -9
11 -19 11 -9 -1 -14 2 -11 7 3 5 0 9 -5 9 -6 0 -11 -7 -11 -15 0 -8 5 -15 11
-15 6 0 21 -10 34 -22 20 -19 21 -24 8 -36 -12 -12 -12 -17 1 -31 13 -14 13
-20 3 -31 -10 -12 -9 -12 6 -1 10 8 14 18 9 25 -13 18 -8 39 11 42 20 3 22 -7
5 -26 -11 -12 -10 -12 4 -1 10 7 17 20 16 29 -3 43 3 77 11 63 7 -11 9 -11 14
0 3 8 6 4 6 -9 1 -13 -3 -21 -7 -18 -4 2 -8 -4 -8 -15 0 -19 1 -19 13 -3 13
18 15 84 3 84 -4 0 -13 -6 -19 -14z m-36 -67 c11 -16 1 -19 -13 -3 -7 8 -8 14
-3 14 5 0 13 -5 16 -11z"/>
<path d="M18765 19061 c-3 -5 -2 -12 3 -15 5 -3 9 1 9 9 0 17 -3 19 -12 6z"/>
<path d="M18538 18990 c-10 -11 -13 -22 -8 -25 6 -4 10 -2 10 4 0 6 6 8 14 5
11 -4 13 0 9 15 -3 12 -6 21 -7 20 0 0 -9 -9 -18 -19z"/>
<path d="M18425 18880 c-3 -5 -1 -10 4 -10 6 0 11 5 11 10 0 6 -2 10 -4 10 -3
0 -8 -4 -11 -10z"/>
<path d="M18520 18851 c0 -6 4 -13 10 -16 6 -3 7 1 4 9 -7 18 -14 21 -14 7z"/>
<path d="M18489 18803 c-13 -16 -12 -17 4 -4 9 7 17 15 17 17 0 8 -8 3 -21
-13z"/>
<path d="M18399 18713 c-13 -16 -12 -17 4 -4 16 13 21 21 13 21 -2 0 -10 -8
-17 -17z"/>
<path d="M18209 18710 c0 -3 -2 -13 -4 -22 -2 -10 1 -18 5 -18 15 0 19 15 9
30 -5 8 -9 13 -10 10z"/>
<path d="M18167 18671 c-14 -24 -15 -31 -3 -40 10 -8 12 -21 6 -46 -5 -20 -4
-33 1 -29 5 3 9 17 9 32 0 21 2 24 10 12 9 -13 10 -13 11 0 3 31 -5 87 -12 94
-3 3 -13 -7 -22 -23z m19 -26 c-2 -7 1 -18 7 -24 6 -6 9 -11 6 -11 -3 0 -14
10 -25 22 -10 12 -13 18 -5 13 11 -6 13 -4 8 9 -4 11 -3 15 4 11 6 -4 8 -13 5
-20z"/>
<path d="M18293 18643 c1 -15 5 -19 13 -13 6 6 15 6 19 2 5 -4 5 -1 1 6 -4 7
-11 10 -16 7 -4 -3 -10 1 -13 7 -3 7 -4 3 -4 -9z"/>
<path d="M18360 18656 c0 -2 8 -10 18 -17 15 -13 16 -12 3 4 -13 16 -21 21
-21 13z"/>
<path d="M17975 18540 c-6 -10 1 -14 18 -11 5 1 6 -3 2 -8 -3 -6 -11 -8 -18
-5 -7 2 -24 -7 -37 -21 -19 -21 -21 -25 -7 -25 12 0 17 -9 17 -27 0 -16 4 -34
9 -42 5 -8 7 4 4 31 -4 36 -2 48 13 59 11 8 26 23 34 34 8 11 10 17 6 13 -5
-4 -15 -3 -22 3 -8 7 -14 7 -19 -1z m5 -35 c0 -2 -10 -9 -22 -15 -22 -11 -22
-10 -4 4 21 17 26 19 26 11z"/>
<path d="M18205 18531 c-3 -5 -2 -12 3 -15 5 -3 9 1 9 9 0 17 -3 19 -12 6z"/>
<path d="M17971 18444 c0 -11 3 -14 6 -6 3 7 2 16 -1 19 -3 4 -6 -2 -5 -13z"/>
<path d="M17984 18406 c1 -8 5 -18 8 -22 4 -3 5 1 4 10 -1 8 -5 18 -8 22 -4 3
-5 -1 -4 -10z"/>
<path d="M17955 18351 c-3 -5 -2 -12 3 -15 5 -3 9 1 9 9 0 17 -3 19 -12 6z"/>
<path d="M25054 18888 c-4 -7 -4 -10 1 -6 4 4 15 2 24 -5 14 -11 14 -10 2 6
-16 20 -18 21 -27 5z"/>
<path d="M18360 18813 c0 -4 5 -15 10 -23 8 -13 10 -13 10 2 0 9 -4 20 -10 23
-5 3 -10 3 -10 -2z"/>
<path d="M20914 11106 c1 -8 5 -18 8 -22 4 -3 5 1 4 10 -1 8 -5 18 -8 22 -4 3
-5 -1 -4 -10z"/>
<path d="M20917 11057 c-3 -8 -2 -20 3 -26 5 -9 8 -4 8 13 0 29 -3 32 -11 13z"/>
<path d="M20903 11005 c0 -8 4 -12 9 -9 5 3 6 10 3 15 -9 13 -12 11 -12 -6z"/>
<path d="M20885 10973 c1 -10 -2 -24 -8 -31 -8 -10 -7 -12 3 -10 13 3 15 -7
11 -44 -1 -7 -10 -4 -23 8 l-23 18 22 -23 22 -24 -25 -20 c-15 -12 -23 -25
-19 -34 3 -9 0 -22 -7 -30 -6 -8 -7 -13 -2 -11 5 2 9 -1 9 -7 0 -5 -3 -9 -7
-8 -4 2 -5 -4 -1 -12 5 -13 7 -13 19 2 7 10 14 13 14 7 0 -6 -9 -23 -20 -37
-11 -14 -19 -29 -18 -34 2 -4 -1 -8 -7 -8 -5 0 -9 3 -8 6 1 3 -5 6 -12 6 -10
0 -12 -4 -5 -12 6 -7 5 -16 -3 -25 -10 -10 -9 -11 3 -4 21 12 40 14 40 4 0 -5
3 -16 7 -26 4 -11 2 -15 -4 -11 -6 4 -10 -1 -10 -11 0 -40 -3 -48 -12 -33 -5
8 -5 27 0 44 6 22 6 28 -2 20 -6 -6 -11 -31 -12 -56 0 -44 -1 -45 -36 -38 -2
1 3 9 10 19 11 14 11 15 -1 5 -21 -19 -21 -42 0 -38 11 2 20 -4 23 -15 6 -23
-7 -47 -17 -31 -4 6 -5 15 -2 19 3 5 -1 9 -9 9 -10 0 -11 -5 -5 -17 5 -10 6
-21 2 -25 -4 -3 -1 -5 7 -3 8 2 17 -6 19 -17 4 -17 2 -18 -12 -6 -9 7 -16 10
-17 5 0 -5 -4 0 -8 10 -7 19 -8 19 -13 -2 -3 -12 -2 -20 2 -19 4 1 8 -2 8 -8
0 -5 -5 -9 -12 -7 -6 2 -8 0 -4 -4 4 -4 2 -14 -4 -23 -10 -12 -8 -12 8 1 16
14 23 15 32 6 17 -17 15 -33 -2 -19 -16 13 -18 11 -48 -49 -17 -34 -17 -35 1
-13 20 24 33 21 24 -5 -4 -13 -2 -13 9 2 14 18 15 17 10 -15 -2 -19 -1 -31 3
-27 5 4 15 2 24 -5 14 -11 14 -10 2 6 -7 9 -10 17 -6 17 4 0 2 6 -4 14 -9 11
-9 16 -1 21 7 4 10 16 7 26 -3 10 -1 22 5 25 5 3 7 12 4 19 -3 9 2 11 16 7 14
-3 16 -7 7 -13 -7 -4 -15 -23 -17 -41 -4 -35 10 -32 15 4 2 12 8 27 13 33 7 8
4 18 -10 30 -23 20 -26 45 -7 45 14 0 17 54 3 67 -5 4 -6 -3 -3 -16 4 -18 3
-21 -6 -12 -9 9 -7 20 8 48 11 20 19 41 17 46 -1 5 3 5 9 1 8 -5 9 -3 4 6 -5
9 -4 11 4 6 8 -5 7 -13 -4 -28 -11 -17 -12 -25 -2 -37 11 -14 10 -14 -5 -2
-17 13 -26 2 -10 -13 4 -4 7 -12 7 -17 0 -5 5 -8 10 -6 6 1 10 16 10 32 0 17
3 35 7 41 7 10 5 41 -6 94 -3 13 0 27 7 32 9 6 9 8 -1 8 -10 0 -9 9 7 35 11
19 16 35 11 35 -6 0 -10 -5 -10 -12 0 -23 -23 10 -26 37 -3 27 35 63 46 45 4
-6 6 15 5 47 -1 32 3 65 9 73 6 8 6 12 2 8 -5 -4 -15 -3 -22 3 -9 7 -12 6 -9
-8z m-29 -290 c0 -16 4 -39 8 -53 5 -18 4 -21 -3 -9 -13 20 -22 69 -15 81 8
12 9 10 10 -19z m-45 -216 c-10 -9 -11 -8 -5 6 3 10 9 15 12 12 3 -3 0 -11 -7
-18z m-9 -42 c3 0 10 -4 15 -8 4 -5 1 -7 -7 -5 -9 2 -14 -3 -12 -12 3 -12 1
-12 -9 -3 -17 17 -21 46 -6 36 7 -4 15 -8 19 -8z m-16 -79 c1 -8 -4 -13 -12
-12 -21 3 -27 13 -20 32 5 13 9 15 18 6 7 -7 13 -18 14 -26z"/>
<path d="M20830 10885 c13 -14 26 -25 28 -25 3 0 -5 11 -18 25 -13 14 -26 25
-28 25 -3 0 5 -11 18 -25z"/>
<path d="M20816 10848 c3 -5 10 -6 15 -3 13 9 11 12 -6 12 -8 0 -12 -4 -9 -9z"/>
<path d="M20875 10829 c-5 -8 -4 -10 3 -5 8 5 12 -1 13 -16 1 -18 2 -19 6 -4
6 23 -12 43 -22 25z"/>
<path d="M20816 10725 c-3 -9 -11 -13 -17 -9 -8 5 -9 3 -4 -5 6 -10 11 -9 23
3 9 8 13 18 10 21 -3 3 -8 -1 -12 -10z"/>
<path d="M20726 10560 c8 -12 12 -54 4 -62 -5 -8 -7 -39 -2 -33 4 4 8 11 8 16
1 5 3 10 4 12 10 11 4 59 -9 70 -13 10 -14 10 -5 -3z"/>
<path d="M20715 10441 c-3 -5 -2 -12 3 -15 5 -3 9 1 9 9 0 17 -3 19 -12 6z"/>
<path d="M20730 10291 c0 -7 -5 -9 -12 -5 -7 5 -8 3 -3 -5 5 -9 10 -10 18 -2
6 6 8 14 4 18 -4 3 -7 1 -7 -6z"/>
<path d="M20693 10265 c0 -8 4 -12 9 -9 5 3 6 10 3 15 -9 13 -12 11 -12 -6z"/>
<path d="M20787 10200 c3 -11 9 -17 15 -14 5 3 4 12 -3 20 -16 19 -18 18 -12
-6z"/>
<path d="M20673 10185 c0 -8 4 -12 9 -9 5 3 6 10 3 15 -9 13 -12 11 -12 -6z"/>
<path d="M20744 10106 c0 -13 4 -22 9 -19 10 6 9 31 -2 37 -5 3 -8 -5 -7 -18z"/>
<path d="M20710 10053 c-4 -38 -5 -41 -12 -49 -5 -4 -8 1 -8 11 0 10 -2 16 -5
13 -4 -3 -3 -18 1 -34 7 -27 7 -27 15 -5 5 12 14 19 19 16 8 -5 7 -11 -1 -21
-10 -13 -9 -27 6 -81 3 -10 -3 0 -14 22 -11 22 -20 35 -20 28 -1 -6 -10 -10
-21 -8 -18 3 -19 1 -9 -18 16 -31 23 -36 15 -11 -4 15 -2 21 9 21 19 0 19 -9
0 -54 l-15 -36 -28 24 -27 24 22 -25 c23 -27 26 -39 13 -55 -4 -5 -7 -21 -6
-35 1 -14 -2 -30 -6 -37 -6 -7 -4 -14 3 -19 7 -4 9 -3 5 4 -3 6 -2 13 3 16 5
4 12 3 15 -2 6 -10 -10 -37 -24 -37 -12 0 -13 -5 -5 -27 4 -10 11 -18 17 -18
5 0 7 4 4 9 -3 5 1 14 9 21 12 10 15 10 15 0 0 -8 3 -10 6 -7 4 4 1 13 -5 21
-13 16 -6 40 9 31 13 -8 24 15 12 27 -7 7 -7 19 -2 34 10 24 8 26 -20 28 -8 1
-13 6 -10 11 3 6 9 9 14 7 5 -2 16 4 26 13 9 8 19 12 23 9 8 -8 1 66 -8 89 -5
11 -1 25 10 37 10 11 14 20 9 20 -5 0 0 7 10 15 23 18 31 46 10 38 -8 -3 -12
-9 -9 -13 3 -4 -2 -13 -10 -20 -12 -10 -16 -9 -19 1 -13 42 -14 43 -16 22z
m-2 -190 c-19 -23 -26 -14 -15 17 10 25 13 27 18 13 4 -10 2 -24 -3 -30z m-20
-54 c-10 -6 -18 -15 -18 -22 0 -7 4 -6 10 3 6 9 10 10 10 3 0 -6 -4 -15 -10
-18 -5 -3 -10 -12 -9 -18 0 -9 2 -8 6 1 5 13 23 7 23 -8 0 -9 -19 -8 -37 3 -9
5 -12 60 -4 62 0 1 11 1 24 2 19 2 20 1 5 -8z m-18 -103 c0 -2 -6 -9 -14 -15
-11 -9 -16 -9 -22 0 -4 7 -3 9 4 5 6 -3 13 -2 17 4 6 10 15 14 15 6z"/>
<path d="M20639 9987 c7 -9 17 -15 21 -12 5 3 11 0 13 -5 3 -6 4 -5 3 2 -2 7
-7 13 -12 13 -5 0 -16 4 -24 10 -13 8 -13 7 -1 -8z"/>
<path d="M20651 9893 c7 -12 15 -20 18 -17 3 2 -3 12 -13 22 -17 16 -18 16 -5
-5z"/>
<path d="M20605 9731 c-3 -5 -2 -12 3 -15 5 -3 9 1 9 9 0 17 -3 19 -12 6z"/>
<path d="M21813 12835 c0 -8 4 -12 9 -9 5 3 6 10 3 15 -9 13 -12 11 -12 -6z"/>
<path d="M21846 12835 c-3 -9 -2 -13 3 -10 17 10 23 -16 9 -33 -18 -20 -31
-42 -25 -42 2 0 13 14 26 30 19 27 20 33 8 51 -13 17 -15 18 -21 4z"/>
<path d="M21855 12754 c-15 -24 -18 -24 -34 -10 -15 14 -18 14 -18 1 0 -8 4
-12 8 -9 13 8 17 -10 8 -34 -5 -13 -14 -20 -19 -17 -8 5 -7 12 2 23 10 13 8
13 -9 -1 -13 -12 -23 -14 -26 -7 -3 6 -4 5 -3 -2 2 -7 8 -13 14 -13 7 0 12 -3
12 -7 0 -31 -1 -32 -11 -18 -8 12 -9 12 -7 -5 2 -11 -3 -20 -11 -20 -8 0 -15
-6 -17 -13 -1 -7 0 -8 3 -2 2 5 9 7 14 4 6 -3 5 -11 -2 -20 -10 -13 -17 -11
-43 13 -16 15 -24 20 -16 10 8 -11 15 -27 17 -38 1 -10 4 -22 5 -26 2 -4 -1
-8 -7 -8 -5 0 -9 6 -9 12 1 7 -3 10 -9 6 -6 -4 -8 0 -4 10 9 24 0 21 -14 -4
-8 -15 -8 -19 0 -15 13 8 14 4 5 -19 -6 -14 -10 -13 -32 7 -15 13 -21 16 -14
6 14 -18 6 -27 -19 -23 -9 2 -16 -3 -16 -11 0 -10 4 -11 14 -3 11 10 17 6 15
-12 -1 -3 6 -6 13 -6 11 0 12 4 4 13 -7 8 -7 14 1 19 5 3 14 -4 19 -16 8 -22
8 -22 15 6 5 21 10 25 19 16 8 -8 8 -14 -1 -23 -7 -7 -12 -21 -11 -32 1 -18 2
-17 9 4 8 24 8 23 7 -6 -1 -27 -3 -30 -18 -21 -10 6 -16 14 -14 17 2 4 -8 6
-22 5 -15 0 -28 -7 -31 -15 -2 -9 0 -11 5 -5 10 13 33 13 32 0 -1 -5 -4 -9 -8
-8 -4 1 -8 -13 -9 -30 -2 -17 -8 -36 -14 -42 -8 -7 -9 -4 -4 10 6 20 6 20 -9
1 -8 -11 -16 -17 -16 -13 -5 25 -4 33 6 40 6 4 2 7 -10 5 -11 -2 -20 2 -20 9
0 6 -3 14 -7 18 -3 4 -5 0 -4 -9 1 -8 5 -19 9 -22 4 -4 1 -14 -5 -23 -7 -9 -8
-13 -4 -9 16 14 36 -13 36 -47 0 -48 25 -39 56 18 13 26 21 47 16 47 -5 0 -14
-11 -20 -25 -6 -14 -16 -25 -21 -25 -6 0 -8 -10 -6 -21 3 -12 1 -19 -2 -15 -4
4 -9 18 -10 31 -3 18 0 23 10 19 10 -3 18 6 26 26 7 20 15 29 22 24 8 -4 9 -3
5 5 -4 6 -13 8 -19 4 -7 -4 -6 0 2 10 19 24 29 13 25 -29 -2 -29 -1 -34 10
-24 8 6 12 19 9 29 -3 12 7 27 28 45 24 20 29 30 20 39 -16 16 -13 28 10 56
15 18 23 21 31 13 7 -7 16 -12 20 -12 11 0 6 23 -7 33 -6 5 -4 12 6 20 9 6 15
21 13 32 -4 29 15 48 33 33 13 -10 14 -7 10 19 -3 18 -2 34 1 38 5 5 11 45 6
45 -1 0 -9 -12 -19 -26z m6 -17 c-6 -8 -7 -18 -3 -22 4 -5 1 -5 -5 -1 -8 4
-13 1 -13 -7 0 -8 -7 -20 -15 -27 -9 -7 -14 -19 -11 -27 3 -7 1 -13 -5 -13 -6
0 -7 -5 -3 -12 4 -6 3 -8 -3 -5 -16 10 -23 -18 -10 -34 10 -11 9 -11 -5 0 -15
11 -19 10 -27 -12 -5 -14 -15 -28 -20 -32 -6 -3 -11 -17 -11 -31 0 -18 4 -23
13 -18 7 5 6 0 -3 -10 -14 -18 -15 -18 -21 5 -3 13 -1 33 6 44 8 13 9 28 4 43
-6 15 -5 21 1 17 6 -3 10 -14 11 -23 0 -14 2 -14 6 -2 3 8 12 23 21 33 8 9 12
17 8 17 -4 0 6 18 23 39 17 21 31 42 31 47 0 8 30 44 38 44 2 0 -1 -6 -7 -13z"/>
<path d="M21736 12678 c10 -14 21 -24 23 -22 3 3 -6 15 -18 27 l-24 22 19 -27z"/>
<path d="M21709 12648 c14 -19 32 -15 30 5 0 8 -2 8 -6 -1 -4 -10 -8 -10 -21
0 -15 12 -16 11 -3 -4z"/>
<path d="M21609 12573 c-13 -16 -12 -17 4 -4 9 7 17 15 17 17 0 8 -8 3 -21
-13z"/>
<path d="M21621 12434 c0 -11 3 -14 6 -6 3 7 2 16 -1 19 -3 4 -6 -2 -5 -13z"/>
<path d="M21548 12379 c14 -15 17 -83 3 -74 -5 3 -12 1 -16 -5 -4 -6 -10 -8
-14 -5 -5 2 -16 -2 -27 -9 -17 -13 -16 -13 9 -11 29 3 30 -5 10 -55 -11 -26
-21 -27 -39 -2 -9 12 -10 11 -8 -9 1 -13 3 -26 3 -28 1 -2 7 2 15 8 11 9 13 4
10 -29 -1 -22 1 -42 6 -45 12 -7 41 6 35 16 -3 4 3 13 14 19 11 6 18 16 15 23
-2 7 4 21 15 31 11 10 17 24 14 30 -11 17 -12 37 -2 30 5 -3 7 -10 4 -15 -4
-5 -2 -9 3 -9 20 0 19 13 -4 35 -26 26 -36 103 -11 89 7 -4 9 -3 4 2 -5 5 -12
9 -15 9 -4 0 -14 4 -22 9 -12 7 -13 6 -2 -5z m13 -99 c7 24 7 23 6 -5 0 -17 2
-36 7 -43 4 -7 2 -12 -5 -12 -7 0 -9 -3 -6 -7 4 -3 0 -15 -10 -25 -9 -10 -13
-18 -9 -18 4 0 4 -5 1 -10 -5 -8 -12 -7 -22 1 -12 11 -13 8 -9 -17 l6 -29 -11
27 c-7 19 -7 33 0 45 10 17 10 17 11 0 0 -10 5 -15 10 -12 7 4 7 13 0 26 -6
11 -7 25 -3 32 4 6 9 23 9 37 2 36 6 39 12 10 l5 -25 8 25z"/>
<path d="M21542 12255 c4 -4 3 -14 -3 -21 -7 -9 -7 -18 0 -31 6 -10 11 -16 12
-13 8 39 7 60 -3 66 -7 4 -10 4 -6 -1z"/>
<path d="M21517 12364 c-3 -4 -2 -14 3 -24 5 -10 6 -20 3 -24 -3 -3 -4 -6 -1
-6 3 0 12 8 19 17 10 11 10 14 2 9 -12 -6 -18 5 -14 27 1 9 -4 9 -12 1z"/>
<path d="M21480 12246 c0 -8 4 -17 9 -20 5 -4 7 3 4 14 -6 23 -13 26 -13 6z"/>
<path d="M23174 14050 c-1 -33 2 -57 6 -55 9 6 10 115 1 115 -3 0 -6 -27 -7
-60z"/>
<path d="M23063 14054 c9 -11 14 -24 10 -29 -5 -4 -2 -5 5 -1 14 8 15 -9 2
-39 -8 -18 -10 -16 -14 14 0 5 -5 13 -10 18 -5 4 -6 3 -3 -3 4 -7 1 -17 -7
-23 -8 -7 -16 -8 -18 -4 -3 4 -3 2 -1 -5 5 -22 -8 -36 -19 -21 -7 11 -9 11 -7
-1 3 -29 -1 -41 -11 -35 -6 3 -7 17 -4 30 3 13 0 26 -7 30 -8 5 -10 4 -5 -4 4
-6 4 -21 1 -32 -6 -17 -9 -19 -17 -8 -7 11 -8 11 -6 -3 2 -9 -1 -16 -7 -15 -5
1 -9 8 -8 16 1 9 -2 10 -10 2 -11 -11 9 -45 23 -36 4 3 11 -2 14 -11 9 -24 7
-27 -9 -14 -13 11 -14 10 -9 -4 10 -26 -4 -18 -20 12 -8 15 -15 21 -16 13 0
-11 -3 -11 -17 0 -9 8 -14 9 -10 3 7 -12 -25 -47 -36 -39 -4 3 -5 2 -2 -1 2
-4 0 -16 -6 -27 -8 -14 -8 -18 0 -13 6 4 11 1 11 -8 0 -10 -8 -14 -27 -11 -16
2 -23 2 -16 -1 7 -3 9 -12 6 -20 -5 -13 -7 -13 -15 -2 -6 9 -7 5 -3 -11 6 -18
4 -22 -6 -15 -8 5 -20 9 -28 11 -8 1 -17 7 -21 13 -5 8 -9 7 -13 -4 -4 -9 -3
-15 1 -15 23 4 29 -4 25 -35 -2 -19 0 -37 4 -39 5 -3 8 9 8 26 0 18 5 32 10
32 6 0 8 -4 6 -10 -12 -34 -13 -48 -2 -41 6 4 8 12 5 18 -4 7 -2 8 4 4 8 -4
10 -2 6 7 -3 8 0 18 7 23 8 4 10 3 5 -4 -4 -6 -2 -21 4 -32 9 -16 8 -19 -5
-14 -10 4 -15 2 -13 -6 2 -8 -8 -14 -24 -15 -28 -2 -32 6 -31 61 0 6 -6 11
-13 11 -9 0 -10 -5 -3 -18 5 -10 9 -28 9 -41 0 -18 -2 -20 -10 -8 -8 13 -10
13 -10 1 0 -11 -4 -9 -14 4 -18 25 -10 40 12 23 14 -11 14 -9 -1 8 -9 11 -14
24 -10 29 5 4 2 5 -5 1 -7 -4 -10 -11 -7 -16 3 -5 1 -12 -5 -15 -8 -5 -8 -11
0 -20 7 -8 9 -18 6 -24 -9 -14 -42 -6 -38 10 2 9 0 10 -11 1 -8 -7 -16 -9 -20
-6 -3 3 -4 -2 -3 -13 2 -10 -1 -28 -5 -41 -6 -14 -5 -21 0 -17 5 3 12 1 15 -4
9 -14 -20 -21 -35 -8 -8 7 -10 8 -6 3 4 -5 1 -16 -6 -24 -9 -12 -9 -14 0 -9
18 11 38 -30 23 -48 -6 -7 -10 -17 -9 -21 1 -5 0 -11 -1 -14 -1 -3 -3 -13 -5
-24 -3 -13 0 -15 7 -8 6 6 12 22 13 37 2 14 8 32 14 39 6 7 8 16 4 20 -4 4 3
9 15 13 12 3 22 9 22 14 0 13 -23 6 -38 -11 -11 -13 -11 -11 -2 8 7 13 14 21
17 18 4 -3 14 1 24 10 11 10 19 12 24 5 3 -6 -1 -11 -9 -11 -10 0 -13 -6 -9
-15 3 -9 10 -14 16 -12 11 3 16 22 20 72 2 31 20 40 44 22 8 -6 25 -1 48 13
39 24 39 24 25 50 -7 13 -7 21 0 25 6 4 8 15 5 24 -3 12 0 18 10 18 10 0 14
-6 10 -15 -3 -7 -3 -18 1 -23 8 -13 104 71 104 91 0 23 26 33 52 19 16 -8 22
-8 29 2 5 9 3 17 -6 22 -11 6 -12 13 -4 31 8 18 18 22 43 21 l32 -2 0 58 c0
32 -2 56 -5 54 -2 -3 -14 3 -25 12 -21 18 -21 18 -3 -3z m20 -87 c8 4 7 1 -1
-9 -7 -9 -22 -15 -32 -13 -20 4 -50 -32 -50 -62 -1 -15 -3 -15 -20 6 -21 25
-17 50 4 31 10 -8 20 0 41 31 23 33 30 37 37 24 5 -8 15 -12 21 -8z m-154
-100 c11 -15 11 -23 1 -43 -7 -13 -17 -21 -21 -18 -4 2 -13 -5 -19 -17 -9 -15
-15 -18 -23 -10 -23 23 -10 100 14 85 5 -3 9 -2 8 3 -5 28 18 28 40 0z m-264
-212 c6 0 17 4 25 9 12 7 13 6 3 -4 -9 -10 -10 -17 -2 -27 7 -7 9 -13 5 -13
-16 0 -22 -2 -37 -16 -14 -12 -18 -12 -28 -1 -9 12 -10 25 -2 66 1 2 7 -1 14
-6 6 -5 17 -9 22 -8z"/>
<path d="M23046 13962 c-3 -5 1 -9 9 -9 8 0 12 4 9 9 -3 4 -7 8 -9 8 -2 0 -6
-4 -9 -8z"/>
<path d="M22920 13845 c0 -15 -20 -16 -31 -2 -4 5 -11 -5 -17 -22 -8 -22 -8
-32 0 -37 6 -4 8 -3 5 3 -3 5 7 17 24 27 24 14 41 46 24 46 -3 0 -5 -7 -5 -15z"/>
<path d="M22635 13640 c-3 -5 -1 -11 5 -15 6 -4 7 -12 3 -18 -3 -7 3 -4 14 6
11 9 24 14 29 10 5 -4 3 -1 -3 7 -15 16 -41 22 -48 10z m35 -6 c0 -8 -19 -13
-24 -6 -3 5 1 9 9 9 8 0 15 -2 15 -3z"/>
<path d="M22640 13756 c0 -2 8 -10 18 -17 15 -13 16 -12 3 4 -13 16 -21 21
-21 13z"/>
<path d="M22640 13721 c0 -6 4 -13 10 -16 6 -3 7 1 4 9 -7 18 -14 21 -14 7z"/>
<path d="M22566 13622 c-3 -5 1 -9 9 -9 8 0 12 4 9 9 -3 4 -7 8 -9 8 -2 0 -6
-4 -9 -8z"/>
<path d="M22545 13601 c3 -5 1 -12 -5 -16 -5 -3 -10 -12 -10 -18 0 -7 5 -4 11
6 6 10 15 14 22 10 7 -4 6 0 -2 10 -14 18 -26 23 -16 8z"/>
<path d="M22406 13498 c3 -5 10 -6 15 -3 13 9 11 12 -6 12 -8 0 -12 -4 -9 -9z"/>
<path d="M22510 13451 c0 -5 5 -13 10 -16 6 -3 10 -2 10 4 0 5 -4 13 -10 16
-5 3 -10 2 -10 -4z"/>
<path d="M22330 13421 c0 -6 4 -13 10 -16 6 -3 7 1 4 9 -7 18 -14 21 -14 7z"/>
<path d="M22363 13314 c-7 -3 -9 -12 -6 -20 4 -11 9 -12 19 -3 25 20 17 35
-13 23z"/>
<path d="M21402 12027 c-7 -8 -7 -18 -2 -27 11 -16 11 -15 15 18 3 26 1 27
-13 9z"/>
<path d="M21385 11970 c-3 -5 -2 -10 4 -10 5 0 13 5 16 10 3 6 2 10 -4 10 -5
0 -13 -4 -16 -10z"/>
<path d="M21391 11951 c-8 -5 -9 -11 -3 -15 5 -3 15 1 22 9 14 16 3 20 -19 6z"/>
<path d="M21410 11931 c0 -6 5 -13 10 -16 6 -3 10 1 10 9 0 9 -4 16 -10 16 -5
0 -10 -4 -10 -9z"/>
<path d="M16414 11586 c-111 -50 -117 -219 -9 -270 45 -22 113 -20 152 4 45
27 77 92 70 143 -13 99 -125 163 -213 123z m156 -46 c17 -26 11 -53 -16 -81
-26 -28 -27 -28 -10 -69 l16 -41 -32 3 c-28 3 -33 8 -41 41 -6 26 -14 37 -27
37 -13 0 -21 -11 -27 -37 -7 -32 -13 -39 -37 -41 -15 -2 -26 0 -23 5 2 4 15
52 27 107 l22 98 70 -4 c46 -2 72 -9 78 -18z"/>
<path d="M16458 11495 c-5 -22 -2 -25 22 -25 30 0 56 23 45 40 -3 5 -19 10
-34 10 -23 0 -30 -5 -33 -25z"/>
<path d="M11655 11164 c-154 -37 -251 -79 -388 -170 -300 -200 -533 -537 -514
-745 11 -131 82 -189 231 -189 105 0 180 20 311 85 357 177 664 552 665 811 0
76 -42 152 -101 182 -45 22 -158 37 -204 26z"/>
<path d="M8222 10928 l-143 -213 87 -3 c104 -3 170 9 250 47 157 74 270 225
234 311 -20 49 -60 64 -180 68 l-105 3 -143 -213z"/>
<path d="M15200 10667 l-284 -272 204 -3 c112 -1 207 1 210 5 10 11 164 533
159 538 -2 2 -132 -119 -289 -268z"/>
<path d="M18340 8956 c-99 -21 -184 -52 -302 -111 -389 -193 -753 -572 -879
-914 -40 -110 -50 -238 -25 -325 22 -75 81 -136 157 -162 71 -25 235 -25 334
0 246 63 535 243 770 481 246 248 405 536 405 736 0 136 -45 221 -145 270 -56
27 -77 32 -158 35 -53 2 -119 -2 -157 -10z"/>
<path d="M18985 24530 c10 -11 20 -20 23 -20 3 0 -3 9 -13 20 -10 11 -20 20
-23 20 -3 0 3 -9 13 -20z"/>
<path d="M10295 18969 c-4 -6 -5 -12 -2 -15 2 -3 7 2 10 11 7 17 1 20 -8 4z"/>
<path d="M8934 17482 c-28 -10 -63 -28 -79 -40 -27 -22 -974 -1424 -1016
-1504 -26 -51 -24 -75 12 -110 l30 -31 192 7 c1098 40 1970 240 2457 564 109
72 238 196 297 285 89 133 131 311 99 420 -44 152 -244 265 -583 331 -256 49
-497 71 -948 86 -383 13 -401 12 -461 -8z m1016 -813 c287 -14 658 -54 677
-72 8 -8 -91 -89 -182 -149 -311 -207 -799 -361 -1425 -452 -96 -14 -185 -26
-198 -26 -19 0 10 48 206 343 213 319 241 354 292 370 20 7 380 -2 630 -14z"/>
<path d="M328 9670 c-40 -60 -80 -110 -89 -110 -8 0 -20 -5 -26 -11 -8 -8 -19
-6 -41 5 -51 26 -74 21 -100 -25 -13 -22 -22 -42 -20 -43 2 -2 29 -13 61 -26
47 -18 55 -25 46 -36 -7 -8 -10 -17 -7 -19 3 -3 62 80 131 185 70 104 125 190
122 190 -3 0 -38 -49 -77 -110z"/>
<path d="M150 9336 c0 -2 8 -10 18 -17 15 -13 16 -12 3 4 -13 16 -21 21 -21
13z"/>
<path d="M202 9304 c7 -7 3069 -7 3076 1 3 3 -689 5 -1538 5 -849 0 -1541 -2
-1538 -6z"/>
<path d="M25880 9079 c-30 -16 -46 -27 -35 -25 11 3 31 8 45 11 14 3 31 15 38
26 7 10 11 19 10 19 -2 -1 -28 -14 -58 -31z"/>
<path d="M15678 8633 l-198 -298 113 -3 c195 -5 349 43 496 153 151 114 233
285 177 370 -34 52 -95 69 -251 73 l-140 3 -197 -298z"/>
<path d="M21988 8282 c-218 -207 -397 -380 -397 -385 -1 -4 128 -6 286 -5
l288 3 112 375 c62 206 111 378 110 382 -1 3 -180 -163 -399 -370z"/>
<path d="M14769 8313 c-13 -16 -12 -17 4 -4 9 7 17 15 17 17 0 8 -8 3 -21 -13z"/>
<path d="M14480 7885 c-50 -74 -88 -135 -85 -135 2 0 45 61 95 135 50 74 88
135 85 135 -2 0 -45 -61 -95 -135z"/>
<path d="M14980 7592 l-215 -318 55 -19 c44 -15 91 -20 233 -23 l177 -4 1 -91
c1 -51 4 -82 6 -69 3 12 -3 186 -11 385 -9 199 -16 383 -16 410 0 26 -4 47 -8
47 -4 0 -104 -143 -222 -318z"/>
<path d="M14365 7714 c-9 -15 -12 -23 -6 -20 11 7 35 46 28 46 -3 0 -12 -12
-22 -26z"/>
<path d="M14314 7643 c-15 -21 -29 -40 -30 -42 -2 -2 -17 7 -34 19 -30 22 -32
22 -52 4 -33 -30 -97 -118 -222 -303 -89 -134 -115 -179 -110 -195 4 -12 12
-46 18 -76 10 -52 13 -55 41 -56 30 -1 30 -1 2 3 -16 3 -27 7 -25 11 2 4 103
157 226 340 203 303 261 395 186 295z"/>
<path d="M20843 7210 c-143 -129 -240 -210 -253 -210 -17 0 -20 -6 -20 -49 0
-89 -42 -81 446 -81 l434 0 0 -51 c0 -96 -28 -89 369 -89 307 0 350 2 362 16
8 10 14 57 17 135 l4 119 -140 0 -140 0 49 188 c27 103 52 197 55 210 l6 22
-478 0 -479 0 -232 -210z"/>
<path d="M14388 7003 c23 -2 59 -2 80 0 20 2 1 4 -43 4 -44 0 -61 -2 -37 -4z"/>
<path d="M13988 6993 c6 -2 18 -2 25 0 6 3 1 5 -13 5 -14 0 -19 -2 -12 -5z"/>
<path d="M14043 6993 c9 -2 23 -2 30 0 6 3 -1 5 -18 5 -16 0 -22 -2 -12 -5z"/>
<path d="M14098 6993 c7 -3 16 -2 19 1 4 3 -2 6 -13 5 -11 0 -14 -3 -6 -6z"/>
<path d="M14153 6993 c15 -2 39 -2 55 0 15 2 2 4 -28 4 -30 0 -43 -2 -27 -4z"/>
<path d="M23050 6989 c47 -4 123 -4 170 0 75 7 66 8 -85 8 -151 0 -160 -1 -85
-8z"/>
<path d="M23469 6843 l-24 -28 28 24 c15 14 27 26 27 28 0 8 -8 1 -31 -24z"/>
</g>
</svg>
